<?xml version="1.0" encoding="utf-8"?>
<!-- Generator: Adobe Illustrator 21.0.2, SVG Export Plug-In . SVG Version: 6.00 Build 0)  -->
<svg version="1.1" id="Layer_1" xmlns="http://www.w3.org/2000/svg" xmlns:xlink="http://www.w3.org/1999/xlink" x="0px" y="0px"
	 viewBox="0 0 493 78" style="enable-background:new 0 0 493 78;" xml:space="preserve">
<style type="text/css">
	.st0{fill:#14387F;}
	.st1{fill:#E60050;}
</style>
<g>
	<g>
		<g>
			<path class="st0" d="M24.1,45.4L20,38.2l-2.6,3v4.1h-2.8V30.2h2.8v7l6-7h3.3L21.9,36l5.4,9.4H24.1z"/>
		</g>
	</g>
	<g>
		<g>
			<path class="st0" d="M63.9,44c-1.2,1.2-2.9,1.6-4.8,1.6c-1.6,0-3.3-0.4-4.5-1.6c-0.9-0.7-1.6-2-1.6-3.4h2.8
				c0,0.7,0.3,1.4,0.8,1.9c0.6,0.6,1.7,0.8,2.5,0.8c1,0,2-0.2,2.6-0.8c0.3-0.4,0.6-0.7,0.6-1.4c0-1.1-0.9-1.6-1.8-1.8
				c-1-0.2-2.3-0.2-3.3-0.4c-2.1-0.3-3.8-1.7-3.8-4.2c0-1.2,0.5-2.2,1.3-3c1-1,2.7-1.6,4.4-1.6c1.6,0,3.2,0.5,4.2,1.5
				c0.9,0.9,1.5,2,1.5,3.2H62c0-0.5-0.3-1.1-0.7-1.5c-0.5-0.5-1.5-0.8-2.3-0.8c-0.9,0-1.8,0.2-2.5,0.8C56.2,33.6,56,34,56,34.6
				c0,1,0.6,1.5,1.5,1.6c1,0.1,2.3,0.3,3.3,0.4c2.3,0.3,4.2,1.8,4.2,4.4C65.2,42.3,64.6,43.3,63.9,44z"/>
		</g>
	</g>
	<g>
		<g>
			<path class="st0" d="M102.1,45.4l-1-2.9h-6l-1,2.9h-2.8l5.3-15.1h3l5.3,15.1H102.1z M98.1,33.6L96,40h4.3L98.1,33.6z"/>
		</g>
	</g>
	<g>
		<g>
			<path class="st0" d="M138.4,39.9h-3.2v5.4h-2.7V30.2h5.9c3.5,0,5.3,1.9,5.3,4.8C143.7,38,141.9,39.9,138.4,39.9z M138.3,32.7
				h-3.1v4.9h3.1c1.8,0,2.7-1,2.7-2.4C141,33.7,140.1,32.7,138.3,32.7z"/>
		</g>
	</g>
	<g>
		<g>
			<path class="st0" d="M203.3,19.5l-3.4-5.9l-2.3,2.7v3.2h-1.4V8.1h1.4v6l5.2-6h1.8l-3.7,4.3l4.1,7L203.3,19.5L203.3,19.5z"/>
		</g>
		<g>
			<path class="st0" d="M210.3,12.7c-0.6,0-1.2,0.3-1.5,0.6c-0.7,0.6-0.7,1.7-0.7,2.6v3.6h-1.3v-8.1h1.2l0.1,1.4
				c0.4-1,1.4-1.5,2.4-1.5c0.2,0,0.4,0,0.6,0v1.3C210.8,12.7,210.5,12.7,210.3,12.7z"/>
		</g>
		<g>
			<path class="st0" d="M218.5,19.6c-0.7,0-1.2-0.5-1.2-1.2l0,0c-0.5,0.8-1.5,1.3-2.6,1.3c-1.9,0-2.8-1.2-2.8-2.5
				c0-1,0.7-2.4,2.9-2.5l2.5-0.1V14c0-0.4,0-0.9-0.4-1.2c-0.3-0.3-0.7-0.4-1.3-0.4c-0.7,0-1.2,0.2-1.5,0.5s-0.4,0.6-0.4,1h-1.3
				c0-0.7,0.3-1.3,0.7-1.7c0.5-0.6,1.5-0.9,2.5-0.9c1.6,0,2.5,0.7,2.8,1.6c0.2,0.4,0.2,0.8,0.2,1.2V18c0,0.4,0.2,0.5,0.4,0.5
				c0.1,0,0.4,0,0.4,0v1C219.1,19.5,218.8,19.6,218.5,19.6z M217.3,15.6l-2.2,0.1c-0.8,0-1.8,0.4-1.8,1.5c0,0.7,0.4,1.4,1.6,1.4
				c0.6,0,1.2-0.2,1.7-0.7s0.7-1.2,0.7-1.8V15.6z"/>
		</g>
		<g>
			<path class="st0" d="M220.9,22.9c-0.4,0-0.7,0-1.1-0.2v-1.2c0.3,0.1,0.7,0.1,1,0.1c0.6,0,0.9-0.5,0.9-1v-9.2h1.4v9.2
				C223.1,22,222.4,22.9,220.9,22.9z M221.6,9.5V7.9h1.6v1.6H221.6z"/>
		</g>
		<g>
			<path class="st0" d="M231.5,18.7c-0.6,0.6-1.4,0.9-2.4,0.9s-1.9-0.4-2.4-0.9c-0.9-0.9-1.2-2-1.2-3.3s0.3-2.4,1.2-3.3
				c0.6-0.6,1.4-0.9,2.4-0.9s1.9,0.4,2.4,0.9c0.9,0.9,1.2,2,1.2,3.3S232.4,17.9,231.5,18.7z M230.5,12.9c-0.3-0.3-0.8-0.6-1.5-0.6
				c-0.6,0-1.1,0.2-1.5,0.6c-0.6,0.6-0.8,1.6-0.8,2.5c0,0.9,0.2,1.9,0.8,2.5c0.3,0.3,0.8,0.6,1.5,0.6c0.6,0,1.1-0.2,1.5-0.6
				c0.6-0.6,0.8-1.6,0.8-2.5C231.3,14.5,231.1,13.5,230.5,12.9z"/>
		</g>
		<g>
			<path class="st0" d="M243,19.5h-1.3l-2.1-6.2l-2.2,6.2h-1.3l-2.1-8.1h1.3l1.6,6.1l2.1-6h1.2l2,6l1.6-6.1h1.3L243,19.5z"/>
		</g>
		<g>
			<path class="st0" d="M253,19.6c-0.7,0-1.2-0.5-1.2-1.2l0,0c-0.5,0.8-1.5,1.3-2.6,1.3c-1.9,0-2.8-1.2-2.8-2.5c0-1,0.7-2.4,2.9-2.5
				l2.5-0.1V14c0-0.4,0-0.9-0.4-1.2c-0.3-0.3-0.7-0.4-1.3-0.4c-0.7,0-1.2,0.2-1.5,0.5s-0.4,0.6-0.4,1h-1.3c0-0.7,0.3-1.3,0.7-1.7
				c0.5-0.6,1.5-0.9,2.5-0.9c1.6,0,2.5,0.7,2.8,1.6c0.2,0.4,0.2,0.8,0.2,1.2V18c0,0.4,0.2,0.5,0.4,0.5c0.1,0,0.4,0,0.4,0v1
				C253.6,19.5,253.3,19.6,253,19.6z M251.7,15.6l-2.2,0.1c-0.8,0-1.8,0.4-1.8,1.5c0,0.7,0.4,1.4,1.6,1.4c0.6,0,1.2-0.2,1.7-0.7
				s0.7-1.2,0.7-1.8V15.6z"/>
		</g>
		<g>
			<path class="st0" d="M266.6,18.6c-0.8,0.8-2,1.1-3.2,1.1c-1.4,0-2.5-0.4-3.2-1.1S259,17,259,15.9h1.5c0,0.7,0.3,1.3,0.8,1.8
				s1.4,0.7,2.2,0.7c0.9,0,1.6-0.2,2.1-0.7c0.4-0.3,0.6-0.7,0.6-1.3c0-0.9-0.6-1.6-1.9-1.8l-1.8-0.3c-1.7-0.3-3-1.2-3-3
				c0-0.8,0.4-1.7,1-2.2c0.8-0.7,1.8-1.1,3-1.1c1.1,0,2.2,0.4,2.9,1.1c0.7,0.7,1.1,1.5,1.1,2.4H266c0-0.6-0.2-1.1-0.6-1.4
				c-0.4-0.5-1.1-0.8-2-0.8c-0.8,0-1.5,0.2-2,0.8c-0.3,0.3-0.5,0.7-0.5,1.2c0,1,0.8,1.5,1.7,1.6c0.6,0.1,1.3,0.2,1.9,0.3
				c1.9,0.3,3.1,1.4,3.1,3.2C267.6,17.3,267.2,18,266.6,18.6z"/>
		</g>
		<g>
			<path class="st0" d="M269.2,19.5v-1.2l4.7-5.7h-4.7v-1.2h6.3v1.2l-4.7,5.7h4.7v1.2H269.2z"/>
		</g>
		<g>
			<path class="st0" d="M283.3,19.5l-2.5-3.9l-1.6,1.7v2.2h-1.4V7.9h1.4v7.5l3.7-4.1h1.6l-2.9,3.2l3.2,4.9h-1.5V19.5z"/>
		</g>
		<g>
			<path class="st0" d="M291.9,18.7c-0.6,0.6-1.4,0.9-2.4,0.9s-1.9-0.4-2.4-0.9c-0.9-0.9-1.2-2-1.2-3.3s0.3-2.4,1.2-3.3
				c0.6-0.6,1.4-0.9,2.4-0.9s1.9,0.4,2.4,0.9c0.9,0.9,1.2,2,1.2,3.3S292.7,17.9,291.9,18.7z M290.9,12.9c-0.3-0.3-0.8-0.6-1.5-0.6
				c-0.6,0-1.1,0.2-1.5,0.6c-0.6,0.6-0.8,1.6-0.8,2.5c0,0.9,0.2,1.9,0.8,2.5c0.3,0.3,0.8,0.6,1.5,0.6c0.6,0,1.1-0.2,1.5-0.6
				c0.6-0.6,0.8-1.6,0.8-2.5C291.7,14.5,291.4,13.5,290.9,12.9z"/>
		</g>
		<g>
			<path class="st0" d="M297,13.2v4.4c0,0.5,0.2,0.8,0.7,0.8c0.4,0,0.6,0,0.6,0v1.2c0,0-0.3,0.1-1,0.1c-1.2,0-1.7-0.7-1.7-2V14
				l-0.9,0.6l-0.5-0.8l1.4-0.9v-5h1.4v4l1.3-0.8l0.5,0.8L297,13.2z"/>
		</g>
		<g>
			<path class="st0" d="M306.6,19.6c-0.7,0-1.2-0.5-1.2-1.2l0,0c-0.5,0.8-1.5,1.3-2.6,1.3c-1.9,0-2.8-1.2-2.8-2.5
				c0-1,0.7-2.4,2.9-2.5l2.5-0.1V14c0-0.4,0-0.9-0.4-1.2c-0.3-0.3-0.7-0.4-1.3-0.4c-0.7,0-1.2,0.2-1.5,0.5s-0.4,0.6-0.4,1h-1.3
				c0-0.7,0.3-1.3,0.7-1.7c0.5-0.6,1.5-0.9,2.5-0.9c1.6,0,2.5,0.7,2.8,1.6c0.2,0.4,0.2,0.8,0.2,1.2V18c0,0.4,0.2,0.5,0.4,0.5
				c0.1,0,0.4,0,0.4,0v1C307.2,19.5,306.9,19.6,306.6,19.6z M305.3,15.6l-2.2,0.1c-0.8,0-1.8,0.4-1.8,1.5c0,0.7,0.4,1.4,1.6,1.4
				c0.6,0,1.2-0.2,1.7-0.7s0.7-1.2,0.7-1.8L305.3,15.6L305.3,15.6z"/>
		</g>
		<g>
			<path class="st0" d="M320.1,19.5l-0.9-2.7h-4.9l-0.9,2.7H312l4-11.3h1.7l4,11.3H320.1z M316.7,9.6l-2,5.9h4L316.7,9.6z"/>
		</g>
		<g>
			<path class="st0" d="M328.5,19.5l-0.1-1.1c-0.5,0.8-1.5,1.3-2.4,1.3c-1,0-1.8-0.3-2.3-0.9c-0.8-0.8-1.2-2-1.2-3.4
				s0.4-2.7,1.2-3.5c0.5-0.5,1.3-0.8,2.2-0.8c0.9,0,1.9,0.4,2.4,1.2V7.9h1.4v11.5h-1.2V19.5z M327.5,12.9c-0.3-0.3-0.7-0.5-1.3-0.5
				c-1.8,0-2.3,1.6-2.3,3.1s0.5,3.1,2.3,3.1c0.6,0,1-0.2,1.3-0.5c0.7-0.6,0.9-1.6,0.9-2.6C328.4,14.4,328.2,13.5,327.5,12.9z"/>
		</g>
		<g>
			<path class="st0" d="M342.5,19.5v-5.1c0-1.1-0.4-1.9-1.6-1.9c-0.5,0-0.9,0.2-1.2,0.5c-0.5,0.6-0.7,1.4-0.7,2.2v4.3h-1.4v-5.1
				c0-1.1-0.3-1.9-1.6-1.9c-0.6,0-1,0.3-1.4,0.7c-0.4,0.5-0.5,1.4-0.5,2v4.3h-1.4v-8.1h1.2l0.1,1.2c0.4-0.9,1.4-1.4,2.3-1.4
				c1.2,0,2.1,0.5,2.4,1.5c0.4-1,1.5-1.5,2.5-1.5c1.8,0,2.7,1.2,2.7,3v5.3H342.5z"/>
		</g>
		<g>
			<path class="st0" d="M346.6,9.5V7.9h1.6v1.6H346.6z M346.7,19.5v-8.1h1.4v8.1H346.7z"/>
		</g>
		<g>
			<path class="st0" d="M356.2,19.5v-5.1c0-1.2-0.5-1.9-1.8-1.9c-0.8,0-1.4,0.5-1.8,1.2c-0.3,0.6-0.3,1.4-0.3,2.1v3.8H351v-8.1h1.2
				l0.1,1.2c0.4-0.9,1.5-1.4,2.4-1.4c1.8,0,2.8,1.1,2.8,3v5.3L356.2,19.5L356.2,19.5z"/>
		</g>
		<g>
			<path class="st0" d="M360.3,9.5V7.9h1.6v1.6H360.3z M360.4,19.5v-8.1h1.4v8.1H360.4z"/>
		</g>
		<g>
			<path class="st0" d="M370.1,18.8c-0.6,0.6-1.6,0.9-2.6,0.9s-1.9-0.2-2.6-0.9c-0.5-0.5-0.8-1.2-0.8-1.9h1.4c0,0.6,0.3,1,0.7,1.3
				c0.4,0.3,0.9,0.4,1.5,0.4s1.1-0.1,1.5-0.4c0.2-0.2,0.4-0.5,0.4-0.9c0-0.6-0.4-1-1.3-1.2l-1.8-0.2c-1.2-0.2-2-0.9-2-2.2
				c0-0.6,0.3-1.2,0.7-1.6c0.5-0.5,1.4-0.9,2.4-0.9c1.1,0,2,0.3,2.6,1c0.4,0.4,0.6,0.9,0.6,1.6h-1.4c0-0.4-0.2-0.8-0.5-1
				c-0.3-0.3-0.8-0.4-1.3-0.4c-0.3,0-0.6,0-0.9,0.2c-0.5,0.2-0.8,0.6-0.8,1.1c0,0.7,0.4,1,1.1,1.1c0.4,0.1,1.1,0.1,2,0.3
				c1.2,0.2,2.1,1,2.1,2.2C370.8,17.8,370.5,18.4,370.1,18.8z"/>
		</g>
		<g>
			<path class="st0" d="M375.6,19.6c-1.7,0-2.2-1.1-2.2-2.2v-4.8h-1.6v-1.2h1.6V9.3l1.4-0.3v2.4h2.4v1.2h-2.4v4.7
				c0,0.8,0.3,1.1,1.1,1.1c0.6,0,1.4-0.1,1.4-0.1v1.2C376.8,19.5,376.3,19.6,375.6,19.6z"/>
		</g>
		<g>
			<path class="st0" d="M382.8,12.7c-0.6,0-1.2,0.3-1.5,0.6c-0.7,0.6-0.7,1.7-0.7,2.6v3.6h-1.3v-8.1h1.2l0.1,1.4
				c0.4-1,1.4-1.5,2.4-1.5c0.2,0,0.4,0,0.6,0v1.3C383.3,12.7,383,12.7,382.8,12.7z"/>
		</g>
		<g>
			<path class="st0" d="M391,19.6c-0.7,0-1.2-0.5-1.2-1.2l0,0c-0.5,0.8-1.5,1.3-2.6,1.3c-1.9,0-2.8-1.2-2.8-2.5c0-1,0.7-2.4,2.9-2.5
				l2.5-0.1V14c0-0.4,0-0.9-0.4-1.2c-0.3-0.3-0.7-0.4-1.3-0.4c-0.7,0-1.2,0.2-1.5,0.5s-0.4,0.6-0.4,1h-1.3c0-0.7,0.3-1.3,0.7-1.7
				c0.5-0.6,1.5-0.9,2.5-0.9c1.6,0,2.5,0.7,2.8,1.6c0.2,0.4,0.2,0.8,0.2,1.2V18c0,0.4,0.2,0.5,0.4,0.5c0.1,0,0.4,0,0.4,0v1
				C391.6,19.5,391.4,19.6,391,19.6z M389.8,15.6l-2.2,0.1c-0.8,0-1.8,0.4-1.8,1.5c0,0.7,0.4,1.4,1.6,1.4c0.6,0,1.2-0.2,1.7-0.7
				s0.7-1.2,0.7-1.8L389.8,15.6L389.8,15.6z"/>
		</g>
		<g>
			<path class="st0" d="M399.4,18.8c-0.6,0.6-1.3,0.9-2.3,0.9c-1.5,0-2.4-0.7-3-1.5c-0.4-0.6-0.7-1.5-0.7-2.7s0.2-2.1,0.7-2.7
				c0.6-0.8,1.5-1.5,2.9-1.5c1,0,1.7,0.3,2.3,0.9c0.5,0.5,0.9,1.2,1,2.1H399c-0.1-0.6-0.3-1-0.6-1.3c-0.3-0.3-0.8-0.5-1.3-0.5
				c-0.6,0-1.1,0.2-1.4,0.5c-0.6,0.5-0.8,1.6-0.8,2.5s0.2,2,0.8,2.5c0.4,0.3,0.8,0.5,1.4,0.5s1.1-0.2,1.4-0.5s0.5-0.7,0.5-1.2h1.4
				C400.3,17.6,400,18.3,399.4,18.8z"/>
		</g>
		<g>
			<path class="st0" d="M401.9,22.9c-0.4,0-0.7,0-1.1-0.2v-1.2c0.3,0.1,0.7,0.1,1,0.1c0.6,0,0.9-0.5,0.9-1v-9.2h1.4v9.2
				C404.1,22,403.4,22.9,401.9,22.9z M402.6,9.5V7.9h1.6v1.6H402.6z"/>
		</g>
		<g>
			<path class="st0" d="M407,9.5V7.9h1.6v1.6H407z M407.1,19.5v-8.1h1.4v8.1H407.1z"/>
		</g>
		<g>
			<path class="st0" d="M422.3,14.1c-0.6,0.6-1.5,0.9-2.8,0.9h-2.8v4.4h-1.4V8.1h4.2c1.3,0,2.3,0.4,2.9,1c0.5,0.6,0.9,1.4,0.9,2.4
				C423.2,12.7,422.9,13.5,422.3,14.1z M419.4,9.4h-2.8v4.3h2.8c1.5,0,2.3-0.7,2.3-2.2C421.7,10.1,420.8,9.4,419.4,9.4z"/>
		</g>
		<g>
			<path class="st0" d="M430.2,19.5l-0.1-1.2c-0.4,0.9-1.5,1.4-2.4,1.4c-1.8,0-2.8-1.1-2.8-3v-5.3h1.4v5.1c0,1.2,0.4,1.9,1.7,1.9
				c0.5,0,1-0.2,1.3-0.6c0.5-0.5,0.7-1.4,0.7-2.2v-4.2h1.4v8.1C431.4,19.5,430.2,19.5,430.2,19.5z"/>
		</g>
		<g>
			<path class="st0" d="M440.3,18.8c-0.5,0.5-1.3,0.9-2.3,0.9c-0.9,0-2-0.4-2.4-1.3l-0.1,1.1h-1.2V7.9h1.4v4.4
				c0.4-0.7,1.5-1.2,2.4-1.2s1.7,0.3,2.2,0.8c0.8,0.8,1.2,2.1,1.2,3.5S441.1,18,440.3,18.8z M437.8,12.3c-0.6,0-1,0.2-1.3,0.5
				c-0.7,0.6-0.9,1.6-0.9,2.6c0,1,0.2,2,0.9,2.6c0.3,0.3,0.7,0.5,1.3,0.5c1.8,0,2.3-1.6,2.3-3.1S439.6,12.3,437.8,12.3z"/>
		</g>
		<g>
			<path class="st0" d="M445.5,19.6c-1.2,0-1.7-0.7-1.7-2V7.9h1.4v9.6c0,0.5,0.2,0.8,0.7,0.8c0.4,0,0.6,0,0.6,0v1.2
				C446.4,19.5,446.1,19.6,445.5,19.6z"/>
		</g>
		<g>
			<path class="st0" d="M448.4,9.5V7.9h1.6v1.6H448.4z M448.5,19.5v-8.1h1.4v8.1H448.5z"/>
		</g>
		<g>
			<path class="st0" d="M458.2,18.8c-0.6,0.6-1.3,0.9-2.3,0.9c-1.5,0-2.4-0.7-3-1.5c-0.4-0.6-0.7-1.5-0.7-2.7s0.2-2.1,0.7-2.7
				c0.6-0.8,1.5-1.5,2.9-1.5c1,0,1.7,0.3,2.3,0.9c0.5,0.5,0.9,1.2,1,2.1h-1.4c-0.1-0.6-0.3-1-0.6-1.3c-0.3-0.3-0.8-0.5-1.3-0.5
				c-0.6,0-1.1,0.2-1.4,0.5c-0.6,0.5-0.8,1.6-0.8,2.5s0.2,2,0.8,2.5c0.4,0.3,0.8,0.5,1.4,0.5s1.1-0.2,1.4-0.5s0.5-0.7,0.5-1.2h1.4
				C459.1,17.6,458.7,18.3,458.2,18.8z"/>
		</g>
		<g>
			<path class="st0" d="M460.6,19.5v-1.2l4.7-5.7h-4.7v-1.2h6.3v1.2l-4.7,5.7h4.7v1.2H460.6z"/>
		</g>
		<g>
			<path class="st0" d="M474.5,19.5v-5.1c0-1.2-0.5-1.9-1.8-1.9c-0.8,0-1.4,0.5-1.8,1.2c-0.3,0.6-0.3,1.4-0.3,2.1v3.8h-1.4v-8.1h1.2
				l0.1,1.2c0.4-0.9,1.5-1.4,2.4-1.4c1.8,0,2.8,1.1,2.8,3v5.3L474.5,19.5L474.5,19.5z"/>
		</g>
		<g>
			<path class="st0" d="M485.1,15.9h-5.7c0,0.7,0.3,1.5,0.8,2c0.4,0.4,0.9,0.6,1.5,0.6s1.2-0.2,1.5-0.5c0.2-0.2,0.4-0.4,0.5-0.9h1.3
				c-0.1,0.8-0.6,1.6-1.2,2s-1.3,0.6-2.1,0.6c-1.1,0-2.1-0.5-2.7-1.2c-0.7-0.8-1-1.9-1-3c0-1,0.2-1.8,0.6-2.6c0.6-1,1.6-1.7,3.1-1.7
				c1,0,1.9,0.4,2.5,1c0.7,0.7,1,1.8,1,2.8L485.1,15.9z M483.3,13.1c-0.3-0.4-0.9-0.7-1.6-0.7c-1.5,0-2.2,1.2-2.2,2.4h4.3
				C483.8,14.1,483.6,13.5,483.3,13.1z"/>
		</g>
		<g>
			<path class="st0" d="M486.8,22.9c-0.4,0-0.7,0-1.1-0.2v-1.2c0.3,0.1,0.7,0.1,1,0.1c0.6,0,0.9-0.5,0.9-1v-9.2h1.4v9.2
				C489,22,488.3,22.9,486.8,22.9z M487.5,9.5V7.9h1.6v1.6H487.5z"/>
		</g>
		<g>
			<path class="st0" d="M196,35.6V34h1.6v1.6H196z M196.1,45.5v-8.1h1.4v8.1H196.1z"/>
		</g>
		<g>
			<path class="st0" d="M210.3,45.5v-5.1c0-1.1-0.4-1.9-1.6-1.9c-0.5,0-0.9,0.2-1.2,0.5c-0.5,0.6-0.7,1.4-0.7,2.2v4.3h-1.4v-5.1
				c0-1.1-0.3-1.9-1.6-1.9c-0.6,0-1,0.3-1.4,0.7c-0.4,0.5-0.5,1.4-0.5,2v4.3h-1.4v-8.1h1.2l0.1,1.2c0.4-0.9,1.4-1.4,2.3-1.4
				c1.2,0,2.1,0.5,2.4,1.5c0.4-1,1.5-1.5,2.5-1.5c1.8,0,2.7,1.2,2.7,3v5.3H210.3z"/>
		</g>
		<g>
			<path class="st0" d="M214.4,45.5v-1.9h1.9v1.9H214.4z"/>
		</g>
		<g>
			<path class="st0" d="M229.2,40.2c-0.6,0.6-1.5,0.9-2.8,0.9h-2.8v4.4h-1.4V34.2h4.2c1.3,0,2.3,0.4,2.9,1c0.5,0.6,0.9,1.4,0.9,2.4
				C230.1,38.7,229.8,39.6,229.2,40.2z M226.3,35.5h-2.8v4.3h2.8c1.5,0,2.3-0.7,2.3-2.2C228.6,36.2,227.7,35.5,226.3,35.5z"/>
		</g>
		<g>
			<path class="st0" d="M235.7,38.7c-0.6,0-1.2,0.3-1.5,0.6c-0.7,0.6-0.7,1.7-0.7,2.6v3.6h-1.3v-8.1h1.2l0.1,1.4
				c0.4-1,1.4-1.5,2.4-1.5c0.2,0,0.4,0,0.6,0v1.3C236.2,38.7,235.9,38.7,235.7,38.7z"/>
		</g>
		<g>
			<path class="st0" d="M244.6,41.9h-5.7c0,0.7,0.3,1.5,0.8,2c0.4,0.4,0.9,0.6,1.5,0.6s1.2-0.2,1.5-0.5c0.2-0.2,0.4-0.4,0.5-0.9h1.3
				c-0.1,0.8-0.6,1.6-1.2,2c-0.6,0.4-1.3,0.6-2.1,0.6c-1.1,0-2.1-0.5-2.7-1.2c-0.7-0.8-1-1.9-1-3c0-1,0.2-1.8,0.6-2.6
				c0.6-1,1.6-1.7,3.1-1.7c1,0,1.9,0.4,2.5,1c0.7,0.7,1,1.8,1,2.8L244.6,41.9z M242.7,39.1c-0.3-0.4-0.9-0.7-1.6-0.7
				c-1.5,0-2.2,1.2-2.2,2.4h4.3C243.2,40.1,243,39.5,242.7,39.1z"/>
		</g>
		<g>
			<path class="st0" d="M246.1,45.5v-1.2l4.7-5.7h-4.7v-1.2h6.3v1.2l-4.7,5.7h4.7v1.2H246.1z"/>
		</g>
		<g>
			<path class="st0" d="M257.5,47.2c-0.4,1-1,1.7-2.2,1.7c-0.7,0-1.1-0.1-1.2-0.2v-1.2c0,0,0.4,0.1,1,0.1s1-0.2,1.2-0.8l0.5-1.4
				l-3.2-8.1h1.5l2.4,6.4l2.3-6.4h1.4L257.5,47.2z"/>
		</g>
		<g>
			<path class="st0" d="M267.8,45.5l-0.1-1.1c-0.5,0.8-1.5,1.3-2.4,1.3c-1,0-1.8-0.3-2.3-0.9c-0.8-0.8-1.2-2-1.2-3.4
				s0.4-2.7,1.2-3.5c0.5-0.5,1.3-0.8,2.2-0.8c0.9,0,1.9,0.4,2.4,1.2V34h1.4v11.5H267.8z M266.9,38.9c-0.3-0.3-0.7-0.5-1.3-0.5
				c-1.8,0-2.3,1.6-2.3,3.1s0.5,3.1,2.3,3.1c0.6,0,1-0.2,1.3-0.5c0.7-0.6,0.9-1.6,0.9-2.6S267.5,39.5,266.9,38.9z"/>
		</g>
		<g>
			<path class="st0" d="M278.5,41.9h-5.7c0,0.7,0.3,1.5,0.8,2c0.4,0.4,0.9,0.6,1.5,0.6s1.2-0.2,1.5-0.5c0.2-0.2,0.4-0.4,0.5-0.9h1.3
				c-0.1,0.8-0.6,1.6-1.2,2s-1.3,0.6-2.1,0.6c-1.1,0-2.1-0.5-2.7-1.2c-0.7-0.8-1-1.9-1-3c0-1,0.2-1.8,0.6-2.6c0.6-1,1.6-1.7,3.1-1.7
				c1,0,1.9,0.4,2.5,1c0.7,0.7,1,1.8,1,2.8L278.5,41.9z M276.7,39.1c-0.3-0.4-0.9-0.7-1.6-0.7c-1.5,0-2.2,1.2-2.2,2.4h4.3
				C277.1,40.1,277,39.5,276.7,39.1z"/>
		</g>
		<g>
			<path class="st0" d="M286,45.5v-5.1c0-1.2-0.5-1.9-1.8-1.9c-0.8,0-1.4,0.5-1.8,1.2c-0.3,0.6-0.3,1.4-0.3,2.1v3.8h-1.4v-8.1h1.2
				l0.1,1.2c0.4-0.9,1.5-1.4,2.4-1.4c1.8,0,2.8,1.1,2.8,3v5.3L286,45.5L286,45.5z"/>
		</g>
		<g>
			<path class="st0" d="M292.7,45.6c-1.7,0-2.2-1.1-2.2-2.2v-4.8H289v-1.2h1.6v-2.1L292,35v2.4h2.4v1.2H292v4.7
				c0,0.8,0.3,1.1,1.1,1.1c0.6,0,1.4-0.1,1.4-0.1v1.2C294,45.5,293.5,45.6,292.7,45.6z"/>
		</g>
		<g>
			<path class="st0" d="M302.2,45.6c-0.7,0-1.2-0.5-1.2-1.2l0,0c-0.5,0.8-1.5,1.3-2.6,1.3c-1.9,0-2.8-1.2-2.8-2.5
				c0-1,0.7-2.4,2.9-2.5l2.5-0.1V40c0-0.4,0-0.9-0.4-1.2c-0.3-0.3-0.7-0.4-1.3-0.4c-0.7,0-1.2,0.2-1.5,0.5s-0.4,0.6-0.4,1H296
				c0-0.7,0.3-1.3,0.7-1.7c0.5-0.6,1.5-0.9,2.5-0.9c1.6,0,2.5,0.7,2.8,1.6c0.2,0.4,0.2,0.8,0.2,1.2V44c0,0.4,0.2,0.5,0.4,0.5
				c0.1,0,0.4,0,0.4,0v1C302.8,45.6,302.5,45.6,302.2,45.6z M301,41.6l-2.2,0.1c-0.8,0-1.8,0.4-1.8,1.5c0,0.7,0.4,1.4,1.6,1.4
				c0.6,0,1.2-0.2,1.7-0.7s0.7-1.2,0.7-1.8L301,41.6L301,41.6z"/>
		</g>
		<g>
			<path class="st0" d="M315.8,45.5l-2.1-4.7h-3.1v4.7h-1.4V34.2h4.4c1.3,0,2.3,0.4,2.9,1c0.5,0.6,0.9,1.3,0.9,2.3s-0.3,1.7-0.9,2.2
				c-0.3,0.4-0.8,0.6-1.4,0.8l2.3,5H315.8z M313.5,35.5h-3v4h3c1.3,0,2.3-0.5,2.3-2S314.8,35.5,313.5,35.5z"/>
		</g>
		<g>
			<path class="st0" d="M318.9,45.5v-1.2l4.7-5.7h-4.7v-1.2h6.3v1.2l-4.7,5.7h4.7v1.2H318.9z"/>
		</g>
		<g>
			<path class="st0" d="M333.9,41.9h-5.7c0,0.7,0.3,1.5,0.8,2c0.4,0.4,0.9,0.6,1.5,0.6s1.2-0.2,1.5-0.5c0.2-0.2,0.4-0.4,0.5-0.9h1.3
				c-0.1,0.8-0.6,1.6-1.2,2s-1.3,0.6-2.1,0.6c-1.1,0-2.1-0.5-2.7-1.2c-0.7-0.8-1-1.9-1-3c0-1,0.2-1.8,0.6-2.6c0.6-1,1.6-1.7,3.1-1.7
				c1,0,1.9,0.4,2.5,1c0.7,0.7,1,1.8,1,2.8L333.9,41.9z M332,39.1c-0.3-0.4-0.9-0.7-1.6-0.7c-1.5,0-2.2,1.2-2.2,2.4h4.3
				C332.5,40.1,332.3,39.5,332,39.1z"/>
		</g>
		<g>
			<path class="st0" d="M341.5,44.8c-0.6,0.6-1.3,0.9-2.3,0.9c-1.5,0-2.4-0.7-3-1.5c-0.4-0.6-0.7-1.5-0.7-2.7s0.2-2.1,0.7-2.7
				c0.6-0.8,1.5-1.5,2.9-1.5c1,0,1.7,0.3,2.3,0.9c0.5,0.5,0.9,1.2,1,2.1H341c-0.1-0.6-0.3-1-0.6-1.3c-0.3-0.3-0.8-0.5-1.3-0.5
				c-0.6,0-1.1,0.2-1.4,0.5c-0.6,0.5-0.8,1.6-0.8,2.5s0.2,2,0.8,2.5c0.4,0.3,0.8,0.5,1.4,0.5s1.1-0.2,1.4-0.5s0.5-0.7,0.5-1.2h1.4
				C342.4,43.7,342.1,44.3,341.5,44.8z"/>
		</g>
		<g>
			<path class="st0" d="M344,45.5v-1.2l4.7-5.7H344v-1.2h6.3v1.2l-4.7,5.7h4.7v1.2H344z"/>
		</g>
		<g>
			<path class="st0" d="M355.3,47.2c-0.4,1-1,1.7-2.2,1.7c-0.7,0-1.1-0.1-1.2-0.2v-1.2c0,0,0.4,0.1,1,0.1s1-0.2,1.2-0.8l0.5-1.4
				l-3.2-8.1h1.5l2.4,6.4l2.3-6.4h1.4L355.3,47.2z"/>
		</g>
		<g>
			<path class="st0" d="M366.5,44.9c-0.5,0.5-1.3,0.8-2.2,0.8c-0.9,0-1.9-0.4-2.4-1.2V49h-1.4V37.4h1.2l0.1,1.1
				c0.5-0.8,1.5-1.3,2.4-1.3c1,0,1.8,0.3,2.3,0.9c0.8,0.8,1.2,2,1.2,3.4C367.7,42.9,367.3,44.1,366.5,44.9z M364.1,38.4
				c-0.6,0-1,0.2-1.3,0.5c-0.7,0.6-0.9,1.6-0.9,2.6s0.2,2,0.9,2.6c0.3,0.3,0.7,0.5,1.3,0.5c1.8,0,2.3-1.6,2.3-3.1
				C366.3,40,365.9,38.4,364.1,38.4z"/>
		</g>
		<g>
			<path class="st0" d="M375.5,44.8c-0.6,0.6-1.4,0.9-2.4,0.9s-1.9-0.4-2.4-0.9c-0.9-0.9-1.2-2-1.2-3.3s0.3-2.4,1.2-3.3
				c0.6-0.6,1.4-0.9,2.4-0.9s1.9,0.4,2.4,0.9c0.9,0.9,1.2,2,1.2,3.3S376.4,43.9,375.5,44.8z M374.5,38.9c-0.3-0.3-0.8-0.6-1.5-0.6
				c-0.6,0-1.1,0.2-1.5,0.6c-0.6,0.6-0.8,1.6-0.8,2.5s0.2,1.9,0.8,2.5c0.3,0.3,0.8,0.6,1.5,0.6c0.6,0,1.1-0.2,1.5-0.6
				c0.6-0.6,0.8-1.6,0.8-2.5S375.1,39.5,374.5,38.9z"/>
		</g>
		<g>
			<path class="st0" d="M384.4,44.8c-0.6,0.6-1.6,0.9-2.6,0.9s-1.9-0.2-2.6-0.9c-0.5-0.5-0.8-1.2-0.8-1.9h1.4c0,0.6,0.3,1,0.7,1.3
				c0.4,0.3,0.9,0.4,1.5,0.4s1.1-0.1,1.5-0.4c0.2-0.2,0.4-0.5,0.4-0.9c0-0.6-0.4-1-1.3-1.2l-1.8-0.2c-1.2-0.2-2-0.9-2-2.2
				c0-0.6,0.3-1.2,0.7-1.6c0.5-0.5,1.4-0.9,2.4-0.9c1.1,0,2,0.3,2.6,1c0.4,0.4,0.6,0.9,0.6,1.6h-1.4c0-0.4-0.2-0.8-0.5-1
				c-0.3-0.3-0.8-0.4-1.3-0.4c-0.3,0-0.6,0-0.9,0.2c-0.5,0.2-0.8,0.6-0.8,1.1c0,0.7,0.4,1,1.1,1.1c0.4,0.1,1.1,0.1,2,0.3
				c1.2,0.2,2.1,1,2.1,2.2C385,43.9,384.7,44.4,384.4,44.8z"/>
		</g>
		<g>
			<path class="st0" d="M393.3,44.9c-0.5,0.5-1.3,0.8-2.2,0.8c-0.9,0-1.9-0.4-2.4-1.2V49h-1.4V37.4h1.2l0.1,1.1
				c0.5-0.8,1.5-1.3,2.4-1.3c1,0,1.8,0.3,2.3,0.9c0.8,0.8,1.2,2,1.2,3.4C394.5,42.9,394.1,44.1,393.3,44.9z M390.8,38.4
				c-0.6,0-1,0.2-1.3,0.5c-0.7,0.6-0.9,1.6-0.9,2.6s0.2,2,0.9,2.6c0.3,0.3,0.7,0.5,1.3,0.5c1.8,0,2.3-1.6,2.3-3.1
				C393.1,40,392.6,38.4,390.8,38.4z"/>
		</g>
		<g>
			<path class="st0" d="M402.3,44.8c-0.6,0.6-1.4,0.9-2.4,0.9s-1.9-0.4-2.4-0.9c-0.9-0.9-1.2-2-1.2-3.3s0.3-2.4,1.2-3.3
				c0.6-0.6,1.4-0.9,2.4-0.9s1.9,0.4,2.4,0.9c0.9,0.9,1.2,2,1.2,3.3S403.1,43.9,402.3,44.8z M401.3,38.9c-0.3-0.3-0.8-0.6-1.5-0.6
				c-0.6,0-1.1,0.2-1.5,0.6c-0.6,0.6-0.8,1.6-0.8,2.5s0.2,1.9,0.8,2.5c0.3,0.3,0.8,0.6,1.5,0.6c0.6,0,1.1-0.2,1.5-0.6
				c0.6-0.6,0.8-1.6,0.8-2.5C402,40.5,401.9,39.5,401.3,38.9z"/>
		</g>
		<g>
			<path class="st0" d="M407.4,45.6c-1.2,0-1.7-0.7-1.7-2V34h1.4v9.6c0,0.5,0.2,0.8,0.7,0.8c0.4,0,0.6,0,0.6,0v1.2
				C408.4,45.5,408.1,45.6,407.4,45.6z"/>
		</g>
		<g>
			<path class="st0" d="M410.3,35.6V34h1.6v1.6H410.3z M410.4,45.5v-8.1h1.4v8.1H410.4z"/>
		</g>
		<g>
			<path class="st0" d="M417.4,45.6c-1.7,0-2.2-1.1-2.2-2.2v-4.8h-1.6v-1.2h1.6v-2.1l1.4-0.3v2.4h2.4v1.2h-2.4v4.7
				c0,0.8,0.3,1.1,1.1,1.1c0.6,0,1.4-0.1,1.4-0.1v1.2C418.6,45.5,418.1,45.6,417.4,45.6z"/>
		</g>
		<g>
			<path class="st0" d="M427.3,41.9h-5.7c0,0.7,0.3,1.5,0.8,2c0.4,0.4,0.9,0.6,1.5,0.6s1.2-0.2,1.5-0.5c0.2-0.2,0.4-0.4,0.5-0.9h1.3
				c-0.1,0.8-0.6,1.6-1.2,2s-1.3,0.6-2.1,0.6c-1.1,0-2.1-0.5-2.7-1.2c-0.7-0.8-1-1.9-1-3c0-1,0.2-1.8,0.6-2.6c0.6-1,1.6-1.7,3.1-1.7
				c1,0,1.9,0.4,2.5,1c0.7,0.7,1,1.8,1,2.8L427.3,41.9z M425.4,39.1c-0.3-0.4-0.9-0.7-1.6-0.7c-1.5,0-2.2,1.2-2.2,2.4h4.3
				C425.9,40.1,425.7,39.5,425.4,39.1z"/>
		</g>
		<g>
			<path class="st0" d="M428.9,48.9c-0.4,0-0.7,0-1.1-0.2v-1.2c0.3,0.1,0.7,0.1,1,0.1c0.6,0,0.9-0.5,0.9-1v-9.2h1.4v9.2
				C431.1,48,430.4,48.9,428.9,48.9z M429.6,35.6V34h1.6v1.6H429.6z"/>
		</g>
		<g>
			<path class="st0" d="M444.9,40.2c-0.6,0.6-1.5,0.9-2.8,0.9h-2.8v4.4h-1.4V34.2h4.2c1.3,0,2.3,0.4,2.9,1c0.5,0.6,0.9,1.4,0.9,2.4
				C445.8,38.7,445.5,39.6,444.9,40.2z M442.1,35.5h-2.8v4.3h2.8c1.5,0,2.3-0.7,2.3-2.2C444.4,36.2,443.5,35.5,442.1,35.5z"/>
		</g>
		<g>
			<path class="st0" d="M453,44.8c-0.6,0.6-1.4,0.9-2.4,0.9s-1.9-0.4-2.4-0.9c-0.9-0.9-1.2-2-1.2-3.3s0.3-2.4,1.2-3.3
				c0.6-0.6,1.4-0.9,2.4-0.9s1.9,0.4,2.4,0.9c0.9,0.9,1.2,2,1.2,3.3S453.9,43.9,453,44.8z M452,38.9c-0.3-0.3-0.8-0.6-1.5-0.6
				c-0.6,0-1.1,0.2-1.5,0.6c-0.6,0.6-0.8,1.6-0.8,2.5s0.2,1.9,0.8,2.5c0.3,0.3,0.8,0.6,1.5,0.6c0.6,0,1.1-0.2,1.5-0.6
				c0.6-0.6,0.8-1.6,0.8-2.5C452.7,40.5,452.6,39.5,452,38.9z"/>
		</g>
		<g>
			<path class="st0" d="M458.1,45.6c-1.2,0-1.7-0.7-1.7-2V34h1.4v9.6c0,0.5,0.2,0.8,0.7,0.8c0.4,0,0.6,0,0.6,0v1.2
				C459.1,45.5,458.8,45.6,458.1,45.6z"/>
		</g>
		<g>
			<path class="st0" d="M466.5,44.8c-0.6,0.6-1.6,0.9-2.6,0.9s-1.9-0.2-2.6-0.9c-0.5-0.5-0.8-1.2-0.8-1.9h1.4c0,0.6,0.3,1,0.7,1.3
				c0.4,0.3,0.9,0.4,1.5,0.4s1.1-0.1,1.5-0.4c0.2-0.2,0.4-0.5,0.4-0.9c0-0.6-0.4-1-1.3-1.2l-1.8-0.2c-1.2-0.2-2-0.9-2-2.2
				c0-0.6,0.3-1.2,0.7-1.6c0.5-0.5,1.4-0.9,2.4-0.9c1.1,0,2,0.3,2.6,1c0.4,0.4,0.6,0.9,0.6,1.6h-1.4c0-0.4-0.2-0.8-0.5-1
				c-0.3-0.3-0.8-0.4-1.3-0.4c-0.3,0-0.6,0-0.9,0.2c-0.5,0.2-0.8,0.6-0.8,1.1c0,0.7,0.4,1,1.1,1.1c0.4,0.1,1.1,0.1,2,0.3
				c1.2,0.2,2.1,1,2.1,2.2C467.1,43.9,466.9,44.4,466.5,44.8z"/>
		</g>
		<g>
			<path class="st0" d="M474.9,45.5l-2.5-3.9l-1.6,1.7v2.2h-1.4V34h1.4v7.5l3.7-4.1h1.6l-2.9,3.2l3.2,4.9
				C476.4,45.5,474.9,45.5,474.9,45.5z"/>
		</g>
		<g>
			<path class="st0" d="M478.1,35.6V34h1.6v1.6H478.1z M478.2,45.5v-8.1h1.4v8.1H478.2z"/>
		</g>
		<g>
			<path class="st0" d="M489.1,41.9h-5.7c0,0.7,0.3,1.5,0.8,2c0.4,0.4,0.9,0.6,1.5,0.6s1.2-0.2,1.5-0.5c0.2-0.2,0.4-0.4,0.5-0.9h1.3
				c-0.1,0.8-0.6,1.6-1.2,2s-1.3,0.6-2.1,0.6c-1.1,0-2.1-0.5-2.7-1.2c-0.7-0.8-1-1.9-1-3c0-1,0.2-1.8,0.6-2.6c0.6-1,1.6-1.7,3.1-1.7
				c1,0,1.9,0.4,2.5,1c0.7,0.7,1,1.8,1,2.8L489.1,41.9z M487.2,39.1c-0.3-0.4-0.9-0.7-1.6-0.7c-1.5,0-2.2,1.2-2.2,2.4h4.3
				C487.7,40.1,487.5,39.5,487.2,39.1z"/>
		</g>
		<g>
			<path class="st0" d="M490.7,48.9c-0.4,0-0.7,0-1.1-0.2v-1.2c0.3,0.1,0.7,0.1,1,0.1c0.6,0,0.9-0.5,0.9-1v-9.2h1.4v9.2
				C492.9,48,492.2,48.9,490.7,48.9z M491.4,35.6V34h1.6v1.6H491.4z"/>
		</g>
		<g>
			<path class="st0" d="M196.2,71.5V60.2h1.4v10h5.5v1.3H196.2z"/>
		</g>
		<g>
			<path class="st0" d="M211,67.9h-5.7c0,0.7,0.3,1.5,0.8,2c0.4,0.4,0.9,0.6,1.5,0.6s1.2-0.2,1.5-0.5c0.2-0.2,0.4-0.4,0.5-0.9h1.3
				c-0.1,0.8-0.6,1.6-1.2,2c-0.6,0.4-1.3,0.6-2.1,0.6c-1.1,0-2.1-0.5-2.7-1.2c-0.7-0.8-1-1.9-1-3c0-1,0.2-1.8,0.6-2.6
				c0.6-1,1.6-1.7,3.1-1.7c1,0,1.9,0.4,2.5,1c0.7,0.7,1,1.8,1,2.8L211,67.9z M209.2,65.1c-0.3-0.4-0.9-0.7-1.6-0.7
				c-1.5,0-2.2,1.2-2.2,2.4h4.3C209.7,66.2,209.5,65.5,209.2,65.1z"/>
		</g>
		<g>
			<path class="st0" d="M218.7,70.9c-0.6,0.6-1.3,0.9-2.3,0.9c-1.5,0-2.4-0.7-3-1.5c-0.4-0.6-0.7-1.5-0.7-2.7s0.2-2.1,0.7-2.7
				c0.6-0.8,1.5-1.5,2.9-1.5c1,0,1.7,0.3,2.3,0.9c0.5,0.5,0.9,1.2,1,2.1h-1.4c-0.1-0.6-0.3-1-0.6-1.3s-0.8-0.5-1.3-0.5
				c-0.6,0-1.1,0.2-1.4,0.5c-0.6,0.5-0.8,1.6-0.8,2.5s0.2,2,0.8,2.5c0.4,0.3,0.8,0.5,1.4,0.5c0.6,0,1.1-0.2,1.4-0.5
				c0.3-0.3,0.5-0.7,0.5-1.2h1.4C219.6,69.7,219.2,70.3,218.7,70.9z"/>
		</g>
		<g>
			<path class="st0" d="M226.9,71.5v-5.1c0-1.2-0.5-1.9-1.8-1.9c-0.8,0-1.4,0.5-1.8,1.2c-0.3,0.6-0.3,1.4-0.3,2.1v3.8h-1.4V60h1.4
				v4.5c0.5-0.8,1.5-1.3,2.4-1.3c1.8,0,2.8,1.1,2.8,3v5.3H226.9z"/>
		</g>
		<g>
			<path class="st0" d="M237,71.6c-0.7,0-1.2-0.5-1.2-1.2l0,0c-0.5,0.8-1.5,1.3-2.6,1.3c-1.9,0-2.8-1.2-2.8-2.5c0-1,0.7-2.4,2.9-2.5
				l2.5-0.1V66c0-0.4,0-0.9-0.4-1.2c-0.3-0.3-0.7-0.4-1.3-0.4c-0.7,0-1.2,0.2-1.5,0.5s-0.4,0.6-0.4,1h-1.3c0-0.7,0.3-1.3,0.7-1.7
				c0.5-0.6,1.5-0.9,2.5-0.9c1.6,0,2.5,0.7,2.8,1.6c0.2,0.4,0.2,0.8,0.2,1.2V70c0,0.4,0.2,0.5,0.4,0.5c0.1,0,0.4,0,0.4,0v1
				C237.6,71.6,237.3,71.6,237,71.6z M235.7,67.6l-2.2,0.1c-0.8,0-1.8,0.4-1.8,1.5c0,0.7,0.4,1.4,1.6,1.4c0.6,0,1.2-0.2,1.7-0.7
				s0.7-1.2,0.7-1.8V67.6z"/>
		</g>
		<g>
			<path class="st0" d="M250.9,71.5l-3.4-5.9l-2.3,2.7v3.2h-1.4V60.2h1.4v6l5.2-6h1.8l-3.7,4.3l4.1,7H250.9z"/>
		</g>
		<g>
			<path class="st0" d="M260.1,71.6c-0.7,0-1.2-0.5-1.2-1.2l0,0c-0.5,0.8-1.5,1.3-2.6,1.3c-1.9,0-2.8-1.2-2.8-2.5
				c0-1,0.7-2.4,2.9-2.5l2.5-0.1V66c0-0.4,0-0.9-0.4-1.2c-0.3-0.3-0.7-0.4-1.3-0.4c-0.7,0-1.2,0.2-1.5,0.5c-0.3,0.3-0.4,0.6-0.4,1
				H254c0-0.7,0.3-1.3,0.7-1.7c0.5-0.6,1.5-0.9,2.5-0.9c1.6,0,2.5,0.7,2.8,1.6c0.2,0.4,0.2,0.8,0.2,1.2V70c0,0.4,0.2,0.5,0.4,0.5
				c0.1,0,0.4,0,0.4,0v1C260.7,71.6,260.4,71.6,260.1,71.6z M258.9,67.6l-2.2,0.1c-0.8,0-1.8,0.4-1.8,1.5c0,0.7,0.4,1.4,1.6,1.4
				c0.6,0,1.2-0.2,1.7-0.7s0.7-1.2,0.7-1.8V67.6z"/>
		</g>
		<g>
			<path class="st0" d="M268.5,70.9c-0.6,0.6-1.3,0.9-2.3,0.9c-1.5,0-2.4-0.7-3-1.5c-0.4-0.6-0.7-1.5-0.7-2.7s0.2-2.1,0.7-2.7
				c0.6-0.8,1.5-1.5,2.9-1.5c1,0,1.7,0.3,2.3,0.9c0.5,0.5,0.9,1.2,1,2.1H268c-0.1-0.6-0.3-1-0.6-1.3c-0.3-0.3-0.8-0.5-1.3-0.5
				c-0.6,0-1.1,0.2-1.4,0.5c-0.6,0.5-0.8,1.6-0.8,2.5s0.2,2,0.8,2.5c0.4,0.3,0.8,0.5,1.4,0.5s1.1-0.2,1.4-0.5s0.5-0.7,0.5-1.2h1.4
				C269.4,69.7,269,70.3,268.5,70.9z"/>
		</g>
		<g>
			<path class="st0" d="M270.9,71.5v-1.2l4.7-5.7h-4.7v-1.2h6.3v1.2l-4.7,5.7h4.7v1.2H270.9z"/>
		</g>
		<g>
			<path class="st0" d="M282.3,73.2c-0.4,1-1,1.7-2.2,1.7c-0.7,0-1.1-0.1-1.2-0.2v-1.2c0,0,0.4,0.1,1,0.1s1-0.2,1.2-0.8l0.5-1.4
				l-3.2-8.1h1.5l2.4,6.4l2.3-6.4h1.4L282.3,73.2z"/>
		</g>
		<g>
			<path class="st0" d="M292.7,71.5v-5.1c0-1.2-0.5-1.9-1.8-1.9c-0.8,0-1.4,0.5-1.8,1.2c-0.3,0.6-0.3,1.4-0.3,2.1v3.8h-1.4v-8.1h1.2
				l0.1,1.2c0.4-0.9,1.5-1.4,2.4-1.4c1.8,0,2.8,1.1,2.8,3v5.3L292.7,71.5L292.7,71.5z M290.1,62.7l-0.5-0.8l2.7-2L293,61L290.1,62.7
				z"/>
		</g>
		<g>
			<path class="st0" d="M302.3,70.8c-0.6,0.6-1.6,0.9-2.6,0.9s-1.9-0.2-2.6-0.9c-0.5-0.5-0.8-1.2-0.8-1.9h1.4c0,0.6,0.3,1,0.7,1.3
				c0.4,0.3,0.9,0.4,1.5,0.4s1.1-0.1,1.5-0.4c0.2-0.2,0.4-0.5,0.4-0.9c0-0.6-0.4-1-1.3-1.2l-1.8-0.2c-1.2-0.2-2-0.9-2-2.2
				c0-0.6,0.3-1.2,0.7-1.6c0.5-0.5,1.4-0.9,2.4-0.9c1.1,0,2,0.3,2.6,1c0.4,0.4,0.6,0.9,0.6,1.6h-1.4c0-0.4-0.2-0.8-0.5-1
				c-0.3-0.3-0.8-0.4-1.3-0.4c-0.3,0-0.6,0-0.9,0.2c-0.5,0.2-0.8,0.6-0.8,1.1c0,0.7,0.4,1,1.1,1.1c0.4,0.1,1.1,0.1,2,0.3
				c1.2,0.2,2.1,1,2.1,2.2C302.9,69.9,302.6,70.4,302.3,70.8z"/>
		</g>
		<g>
			<path class="st0" d="M310.7,71.5l-2.5-3.9l-1.6,1.7v2.2h-1.4V60h1.4v7.5l3.7-4.1h1.6l-2.9,3.2l3.2,4.9H310.7z"/>
		</g>
		<g>
			<path class="st0" d="M313.8,61.6V60h1.6v1.6H313.8z M313.9,71.5v-8.1h1.4v8.1H313.9z"/>
		</g>
		<g>
			<path class="st0" d="M324.8,67.9h-5.7c0,0.7,0.3,1.5,0.8,2c0.4,0.4,0.9,0.6,1.5,0.6s1.2-0.2,1.5-0.5c0.2-0.2,0.4-0.4,0.5-0.9h1.3
				c-0.1,0.8-0.6,1.6-1.2,2s-1.3,0.6-2.1,0.6c-1.1,0-2.1-0.5-2.7-1.2c-0.7-0.8-1-1.9-1-3c0-1,0.2-1.8,0.6-2.6c0.6-1,1.6-1.7,3.1-1.7
				c1,0,1.9,0.4,2.5,1c0.7,0.7,1,1.8,1,2.8L324.8,67.9z M322.9,65.1c-0.3-0.4-0.9-0.7-1.6-0.7c-1.5,0-2.2,1.2-2.2,2.4h4.3
				C323.4,66.2,323.3,65.5,322.9,65.1z"/>
		</g>
		<g>
			<path class="st0" d="M333.3,74.4c-0.8,0.8-2.1,0.9-3.3,0.9c-1.1,0-2.3-0.2-3.1-0.9c-0.3-0.3-0.6-0.8-0.6-1.4
				c0-0.8,0.5-1.5,1.2-1.8c-0.5-0.2-0.9-0.7-0.9-1.4c0-0.7,0.5-1.3,1.1-1.6c-0.6-0.5-0.9-1.3-0.9-2.1c0-0.9,0.3-1.5,0.8-2
				c0.6-0.6,1.3-0.9,2.4-0.9c0.8,0,1.4,0.2,1.9,0.5c0.3-0.7,0.9-1.1,1.7-1.1c0.1,0,0.3,0,0.4,0v1.1c-0.1,0-0.2,0-0.3,0
				c-0.5,0-0.9,0.3-1,0.7c0.3,0.4,0.5,1,0.5,1.7c0,0.8-0.3,1.4-0.7,1.9c-0.5,0.6-1.3,1-2.4,1c-0.5,0-0.8,0-1.4-0.2
				c-0.3,0.1-0.7,0.3-0.7,0.7c0,0.7,0.7,0.8,1.2,0.8h1.6c1,0,2,0.2,2.7,0.8c0.4,0.4,0.6,0.9,0.6,1.6C334,73.4,333.7,74,333.3,74.4z
				 M330.6,71.4h-1.9c-0.5,0.2-1,0.7-1,1.3c0,0.4,0.1,0.6,0.3,0.8c0.5,0.5,1.5,0.6,2.2,0.6s1.7-0.1,2.2-0.6c0.2-0.2,0.3-0.5,0.3-0.8
				C332.7,71.5,331.5,71.4,330.6,71.4z M329.9,64.3c-1.1,0-1.8,0.8-1.8,1.8s0.7,1.8,1.8,1.8c1.1,0,1.8-0.8,1.8-1.8
				C331.8,65.1,331.1,64.3,329.9,64.3z"/>
		</g>
		<g>
			<path class="st0" d="M341.1,70.8c-0.6,0.6-1.4,0.9-2.4,0.9s-1.9-0.4-2.4-0.9c-0.9-0.9-1.2-2-1.2-3.3s0.3-2.4,1.2-3.3
				c0.6-0.6,1.4-0.9,2.4-0.9s1.9,0.4,2.4,0.9c0.9,0.9,1.2,2,1.2,3.3S342,69.9,341.1,70.8z M340.1,65c-0.3-0.3-0.8-0.6-1.5-0.6
				c-0.6,0-1.1,0.2-1.5,0.6c-0.6,0.6-0.8,1.6-0.8,2.5s0.2,1.9,0.8,2.5c0.3,0.3,0.8,0.6,1.5,0.6c0.6,0,1.1-0.2,1.5-0.6
				c0.6-0.6,0.8-1.6,0.8-2.5S340.7,65.6,340.1,65z"/>
		</g>
	</g>
	<g>
		<rect x="39" y="0" class="st1" width="1" height="78"/>
	</g>
	<g>
		<rect y="0" class="st1" width="1" height="78"/>
	</g>
	<g>
		<rect x="78" class="st1" width="1" height="78"/>
	</g>
	<g>
		<rect x="156" class="st1" width="1" height="78"/>
	</g>
	<g>
		<rect x="117" class="st1" width="1" height="78"/>
	</g>
</g>
</svg>
