<?xml version="1.0" encoding="utf-8"?>
<!-- Generator: Adobe Illustrator 24.0.3, SVG Export Plug-In . SVG Version: 6.00 Build 0)  -->
<svg version="1.1" id="Layer_1" xmlns="http://www.w3.org/2000/svg" xmlns:xlink="http://www.w3.org/1999/xlink" x="0px" y="0px"
	 viewBox="0 0 566.9 566.9" style="enable-background:new 0 0 566.9 566.9;" xml:space="preserve">
<style type="text/css">
	.st0{fill:#FFFFFF;}
</style>
<g>
	<g>
		<g>
			<path class="st0" d="M29.9,341.6L23.8,331l-4.1,4.9v5.8h-2.5v-20.5h2.5v10.8l9.4-10.8h3.2l-6.7,7.7l7.4,12.6L29.9,341.6
				L29.9,341.6z"/>
		</g>
		<g>
			<path class="st0" d="M42.5,329.4c-1.1,0-2.2,0.5-2.7,1.1c-1.3,1.1-1.3,3.1-1.3,4.7v6.5h-2.3v-14.6h2.2l0.2,2.5
				c0.7-1.8,2.5-2.7,4.3-2.7c0.4,0,0.7,0,1.1,0v2.3C43.4,329.4,42.9,329.4,42.5,329.4z"/>
		</g>
		<g>
			<path class="st0" d="M57.3,341.8c-1.3,0-2.2-0.9-2.2-2.2l0,0c-0.9,1.4-2.7,2.3-4.7,2.3c-3.4,0-5-2.2-5-4.5c0-1.8,1.3-4.3,5.2-4.5
				l4.5-0.2v-1.1c0-0.7,0-1.6-0.7-2.2c-0.5-0.5-1.3-0.7-2.3-0.7c-1.3,0-2.2,0.4-2.7,0.9c-0.5,0.5-0.7,1.1-0.7,1.8h-2.3
				c0-1.3,0.5-2.3,1.3-3.1c0.9-1.1,2.7-1.6,4.5-1.6c2.9,0,4.5,1.3,5,2.9c0.4,0.7,0.4,1.4,0.4,2.2v7c0,0.7,0.4,0.9,0.7,0.9
				c0.2,0,0.7,0,0.7,0v1.8C58.3,341.6,57.8,341.8,57.3,341.8z M55.1,334.6l-4,0.2c-1.4,0-3.2,0.7-3.2,2.7c0,1.3,0.7,2.5,2.9,2.5
				c1.1,0,2.2-0.4,3.1-1.3c0.9-0.9,1.3-2.2,1.3-3.2V334.6z"/>
		</g>
		<g>
			<path class="st0" d="M61.6,347.7c-0.7,0-1.3,0-2-0.4v-2.2c0.5,0.2,1.3,0.2,1.8,0.2c1.1,0,1.6-0.9,1.6-1.8v-16.5h2.5v16.5
				C65.5,346.1,64.3,347.7,61.6,347.7z M62.8,323.6v-2.9h2.9v2.9H62.8z"/>
		</g>
		<g>
			<path class="st0" d="M80.6,340.2c-1.1,1.1-2.5,1.6-4.3,1.6s-3.4-0.7-4.3-1.6c-1.6-1.6-2.2-3.6-2.2-5.9s0.5-4.3,2.2-5.9
				c1.1-1.1,2.5-1.6,4.3-1.6s3.4,0.7,4.3,1.6c1.6,1.6,2.2,3.6,2.2,5.9C82.8,336.6,82.3,338.8,80.6,340.2z M78.8,329.8
				c-0.5-0.5-1.4-1.1-2.7-1.1c-1.1,0-2,0.4-2.7,1.1c-1.1,1.1-1.4,2.9-1.4,4.5c0,1.6,0.4,3.4,1.4,4.5c0.5,0.5,1.4,1.1,2.7,1.1
				c1.1,0,2-0.4,2.7-1.1c1.1-1.1,1.4-2.9,1.4-4.5C80.3,332.6,79.9,330.8,78.8,329.8z"/>
		</g>
		<g>
			<path class="st0" d="M101.3,341.6H99l-3.8-11.1l-4,11.1h-2.3l-3.8-14.6h2.3l2.9,11l3.8-10.8h2.2l3.6,10.8l2.9-11h2.3L101.3,341.6
				z"/>
		</g>
		<g>
			<path class="st0" d="M119.3,341.8c-1.3,0-2.2-0.9-2.2-2.2l0,0c-0.9,1.4-2.7,2.3-4.7,2.3c-3.4,0-5-2.2-5-4.5
				c0-1.8,1.3-4.3,5.2-4.5l4.5-0.2v-1.1c0-0.7,0-1.6-0.7-2.2c-0.5-0.5-1.3-0.7-2.3-0.7c-1.3,0-2.2,0.4-2.7,0.9
				c-0.5,0.5-0.7,1.1-0.7,1.8h-2.3c0-1.3,0.5-2.3,1.3-3.1c0.9-1.1,2.7-1.6,4.5-1.6c2.9,0,4.5,1.3,5,2.9c0.4,0.7,0.4,1.4,0.4,2.2v7
				c0,0.7,0.4,0.9,0.7,0.9c0.2,0,0.7,0,0.7,0v1.8C120.4,341.6,119.8,341.8,119.3,341.8z M117,334.6l-4,0.2c-1.4,0-3.2,0.7-3.2,2.7
				c0,1.3,0.7,2.5,2.9,2.5c1.1,0,2.2-0.4,3.1-1.3s1.3-2.2,1.3-3.2L117,334.6L117,334.6z"/>
		</g>
		<g>
			<path class="st0" d="M143.8,340c-1.4,1.4-3.6,2-5.8,2c-2.5,0-4.5-0.7-5.8-2s-2.2-2.9-2.2-4.9h2.7c0,1.3,0.5,2.3,1.4,3.2
				c0.9,0.9,2.5,1.3,4,1.3c1.6,0,2.9-0.4,3.8-1.3c0.7-0.5,1.1-1.3,1.1-2.3c0-1.6-1.1-2.9-3.4-3.2l-3.2-0.5c-3.1-0.5-5.4-2.2-5.4-5.4
				c0-1.4,0.7-3.1,1.8-4c1.4-1.3,3.2-2,5.4-2c2,0,4,0.7,5.2,2c1.3,1.3,2,2.7,2,4.3h-2.7c0-1.1-0.4-2-1.1-2.5c-0.7-0.9-2-1.4-3.6-1.4
				c-1.4,0-2.7,0.4-3.6,1.4c-0.5,0.5-0.9,1.3-0.9,2.2c0,1.8,1.4,2.7,3.1,2.9c1.1,0.2,2.3,0.4,3.4,0.5c3.4,0.5,5.6,2.5,5.6,5.8
				C145.6,337.7,144.8,338.9,143.8,340z"/>
		</g>
		<g>
			<path class="st0" d="M148.4,341.6v-2.2l8.5-10.3h-8.5v-2.2h11.3v2.2l-8.5,10.3h8.5v2.2H148.4z"/>
		</g>
		<g>
			<path class="st0" d="M173.8,341.6l-4.5-7l-2.9,3.1v4h-2.5v-20.9h2.5v13.5l6.7-7.4h2.9l-5.2,5.8l5.8,8.8h-2.7L173.8,341.6
				L173.8,341.6z"/>
		</g>
		<g>
			<path class="st0" d="M189.3,340.2c-1.1,1.1-2.5,1.6-4.3,1.6s-3.4-0.7-4.3-1.6c-1.6-1.6-2.2-3.6-2.2-5.9s0.5-4.3,2.2-5.9
				c1.1-1.1,2.5-1.6,4.3-1.6s3.4,0.7,4.3,1.6c1.6,1.6,2.2,3.6,2.2,5.9C191.4,336.6,190.7,338.8,189.3,340.2z M187.5,329.8
				c-0.5-0.5-1.4-1.1-2.7-1.1c-1.1,0-2,0.4-2.7,1.1c-1.1,1.1-1.4,2.9-1.4,4.5c0,1.6,0.4,3.4,1.4,4.5c0.5,0.5,1.4,1.1,2.7,1.1
				c1.1,0,2-0.4,2.7-1.1c1.1-1.1,1.4-2.9,1.4-4.5C188.9,332.6,188.4,330.8,187.5,329.8z"/>
		</g>
		<g>
			<path class="st0" d="M198.4,330.3v7.9c0,0.9,0.4,1.4,1.3,1.4c0.7,0,1.1,0,1.1,0v2.2c0,0-0.5,0.2-1.8,0.2c-2.2,0-3.1-1.3-3.1-3.6
				v-6.7l-1.6,1.1l-0.9-1.4l2.5-1.6v-9h2.5v7.2l2.3-1.4l0.9,1.4L198.4,330.3z"/>
		</g>
		<g>
			<path class="st0" d="M215.7,341.8c-1.3,0-2.2-0.9-2.2-2.2l0,0c-0.9,1.4-2.7,2.3-4.7,2.3c-3.4,0-5-2.2-5-4.5
				c0-1.8,1.3-4.3,5.2-4.5l4.5-0.2v-1.1c0-0.7,0-1.6-0.7-2.2c-0.5-0.5-1.3-0.7-2.3-0.7c-1.3,0-2.2,0.4-2.7,0.9
				c-0.5,0.5-0.7,1.1-0.7,1.8h-2.3c0-1.3,0.5-2.3,1.3-3.1c0.9-1.1,2.7-1.6,4.5-1.6c2.9,0,4.5,1.3,5,2.9c0.4,0.7,0.4,1.4,0.4,2.2v7
				c0,0.7,0.4,0.9,0.7,0.9c0.2,0,0.7,0,0.7,0v1.8C216.8,341.6,216.2,341.8,215.7,341.8z M213.4,334.6l-4,0.2c-1.4,0-3.2,0.7-3.2,2.7
				c0,1.3,0.7,2.5,2.9,2.5c1.1,0,2.2-0.4,3.1-1.3c0.9-0.9,1.3-2.2,1.3-3.2L213.4,334.6L213.4,334.6z"/>
		</g>
		<g>
			<path class="st0" d="M240,341.6l-1.6-4.9h-8.8l-1.6,4.9h-2.5l7.2-20.3h3.1l7.2,20.3H240z M233.9,323.8l-3.6,10.6h7.2L233.9,323.8
				z"/>
		</g>
		<g>
			<path class="st0" d="M255.1,341.6l-0.2-2c-0.9,1.4-2.7,2.3-4.3,2.3c-1.8,0-3.2-0.5-4.1-1.6c-1.4-1.4-2.2-3.6-2.2-6.1
				s0.7-4.9,2.2-6.3c0.9-0.9,2.3-1.4,4-1.4c1.6,0,3.4,0.7,4.3,2.2v-7.9h2.5v20.7h-2.2V341.6z M253.3,329.8c-0.5-0.5-1.3-0.9-2.3-0.9
				c-3.2,0-4.1,2.9-4.1,5.6c0,2.7,0.9,5.6,4.1,5.6c1.1,0,1.8-0.4,2.3-0.9c1.3-1.1,1.6-2.9,1.6-4.7
				C254.9,332.5,254.5,330.8,253.3,329.8z"/>
		</g>
		<g>
			<path class="st0" d="M280.3,341.6v-9.2c0-2-0.7-3.4-2.9-3.4c-0.9,0-1.6,0.4-2.2,0.9c-0.9,1.1-1.3,2.5-1.3,4v7.7h-2.5v-9.2
				c0-2-0.5-3.4-2.9-3.4c-1.1,0-1.8,0.5-2.5,1.3c-0.7,0.9-0.9,2.5-0.9,3.6v7.7h-2.5v-14.6h2.2l0.2,2.2c0.7-1.6,2.5-2.5,4.1-2.5
				c2.2,0,3.8,0.9,4.3,2.7c0.7-1.8,2.7-2.7,4.5-2.7c3.2,0,4.9,2.2,4.9,5.4v9.5H280.3z"/>
		</g>
		<g>
			<path class="st0" d="M287.6,323.6v-2.9h2.9v2.9H287.6z M287.8,341.6v-14.6h2.5v14.6H287.8z"/>
		</g>
		<g>
			<path class="st0" d="M304.9,341.6v-9.2c0-2.2-0.9-3.4-3.2-3.4c-1.4,0-2.5,0.9-3.2,2.2c-0.5,1.1-0.5,2.5-0.5,3.8v6.8h-2.3v-14.6
				h2.2l0.2,2.2c0.7-1.6,2.7-2.5,4.3-2.5c3.2,0,5,2,5,5.4v9.5L304.9,341.6L304.9,341.6z"/>
		</g>
		<g>
			<path class="st0" d="M312.3,323.6v-2.9h2.9v2.9H312.3z M312.4,341.6v-14.6h2.5v14.6H312.4z"/>
		</g>
		<g>
			<path class="st0" d="M329.9,340.4c-1.1,1.1-2.9,1.6-4.7,1.6c-1.8,0-3.4-0.4-4.7-1.6c-0.9-0.9-1.4-2.2-1.4-3.4h2.5
				c0,1.1,0.5,1.8,1.3,2.3c0.7,0.5,1.6,0.7,2.7,0.7c1.1,0,2-0.2,2.7-0.7c0.4-0.4,0.7-0.9,0.7-1.6c0-1.1-0.7-1.8-2.3-2.2l-3.2-0.4
				c-2.2-0.4-3.6-1.6-3.6-4c0-1.1,0.5-2.2,1.3-2.9c0.9-0.9,2.5-1.6,4.3-1.6c2,0,3.6,0.5,4.7,1.8c0.7,0.7,1.1,1.6,1.1,2.9h-2.5
				c0-0.7-0.4-1.4-0.9-1.8c-0.5-0.5-1.4-0.7-2.3-0.7c-0.5,0-1.1,0-1.6,0.4c-0.9,0.4-1.4,1.1-1.4,2c0,1.3,0.7,1.8,2,2
				c0.7,0.2,2,0.2,3.6,0.5c2.2,0.4,3.8,1.8,3.8,4C331.1,338.6,330.6,339.7,329.9,340.4z"/>
		</g>
		<g>
			<path class="st0" d="M339.8,341.8c-3.1,0-4-2-4-4v-8.6h-2.9v-2.2h2.9v-3.8l2.5-0.5v4.3h4.3v2.2h-4.3v8.5c0,1.4,0.5,2,2,2
				c1.1,0,2.5-0.2,2.5-0.2v2.2C341.9,341.6,341,341.8,339.8,341.8z"/>
		</g>
		<g>
			<path class="st0" d="M352.7,329.4c-1.1,0-2.2,0.5-2.7,1.1c-1.3,1.1-1.3,3.1-1.3,4.7v6.5h-2.3v-14.6h2.2l0.2,2.5
				c0.7-1.8,2.5-2.7,4.3-2.7c0.4,0,0.7,0,1.1,0v2.3C353.6,329.4,353.1,329.4,352.7,329.4z"/>
		</g>
		<g>
			<path class="st0" d="M367.5,341.8c-1.3,0-2.2-0.9-2.2-2.2l0,0c-0.9,1.4-2.7,2.3-4.7,2.3c-3.4,0-5-2.2-5-4.5
				c0-1.8,1.3-4.3,5.2-4.5l4.5-0.2v-1.1c0-0.7,0-1.6-0.7-2.2c-0.5-0.5-1.3-0.7-2.3-0.7c-1.3,0-2.2,0.4-2.7,0.9
				c-0.5,0.5-0.7,1.1-0.7,1.8h-2.3c0-1.3,0.5-2.3,1.3-3.1c0.9-1.1,2.7-1.6,4.5-1.6c2.9,0,4.5,1.3,5,2.9c0.4,0.7,0.4,1.4,0.4,2.2v7
				c0,0.7,0.4,0.9,0.7,0.9c0.2,0,0.7,0,0.7,0v1.8C368.6,341.6,368.2,341.8,367.5,341.8z M365.3,334.6l-4,0.2c-1.4,0-3.2,0.7-3.2,2.7
				c0,1.3,0.7,2.5,2.9,2.5c1.1,0,2.2-0.4,3.1-1.3s1.3-2.2,1.3-3.2L365.3,334.6L365.3,334.6z"/>
		</g>
		<g>
			<path class="st0" d="M382.6,340.4c-1.1,1.1-2.3,1.6-4.1,1.6c-2.7,0-4.3-1.3-5.4-2.7c-0.7-1.1-1.3-2.7-1.3-4.9
				c0-2.2,0.4-3.8,1.3-4.9c1.1-1.4,2.7-2.7,5.2-2.7c1.8,0,3.1,0.5,4.1,1.6c0.9,0.9,1.6,2.2,1.8,3.8h-2.3c-0.2-1.1-0.5-1.8-1.1-2.3
				c-0.5-0.5-1.4-0.9-2.3-0.9c-1.1,0-2,0.4-2.5,0.9c-1.1,0.9-1.4,2.9-1.4,4.5c0,1.6,0.4,3.6,1.4,4.5c0.7,0.5,1.4,0.9,2.5,0.9
				c1.1,0,2-0.4,2.5-0.9c0.5-0.5,0.9-1.3,0.9-2.2h2.5C384.2,338.2,383.7,339.5,382.6,340.4z"/>
		</g>
		<g>
			<path class="st0" d="M387.1,347.7c-0.7,0-1.3,0-2-0.4v-2.2c0.5,0.2,1.3,0.2,1.8,0.2c1.1,0,1.6-0.9,1.6-1.8v-16.5h2.5v16.5
				C391,346.1,389.8,347.7,387.1,347.7z M388.3,323.6v-2.9h2.9v2.9H388.3z"/>
		</g>
		<g>
			<path class="st0" d="M396.2,323.6v-2.9h2.9v2.9H396.2z M396.4,341.6v-14.6h2.5v14.6H396.4z"/>
		</g>
		<g>
			<path class="st0" d="M423.8,331.9c-1.1,1.1-2.7,1.6-5,1.6h-5v7.9h-2.5v-20.3h7.6c2.3,0,4.1,0.7,5.2,1.8c0.9,1.1,1.6,2.5,1.6,4.3
				C425.4,329.4,424.8,330.8,423.8,331.9z M418.5,323.5h-5v7.7h5c2.7,0,4.1-1.3,4.1-4C422.7,324.7,421.1,323.5,418.5,323.5z"/>
		</g>
		<g>
			<path class="st0" d="M438,341.6l-0.2-2.2c-0.7,1.6-2.7,2.5-4.3,2.5c-3.2,0-5-2-5-5.4v-9.5h2.5v9.2c0,2.2,0.7,3.4,3.1,3.4
				c0.9,0,1.8-0.4,2.3-1.1c0.9-0.9,1.3-2.5,1.3-4v-7.6h2.5v14.6C440.1,341.6,438,341.6,438,341.6z"/>
		</g>
		<g>
			<path class="st0" d="M456.1,340.4c-0.9,0.9-2.3,1.6-4.1,1.6c-1.6,0-3.6-0.7-4.3-2.3l-0.2,2h-2.2v-20.9h2.5v7.9
				c0.7-1.3,2.7-2.2,4.3-2.2s3.1,0.5,4,1.4c1.4,1.4,2.2,3.8,2.2,6.3S457.6,338.9,456.1,340.4z M451.6,328.7c-1.1,0-1.8,0.4-2.3,0.9
				c-1.3,1.1-1.6,2.9-1.6,4.7c0,1.8,0.4,3.6,1.6,4.7c0.5,0.5,1.3,0.9,2.3,0.9c3.2,0,4.1-2.9,4.1-5.6S454.9,328.7,451.6,328.7z"/>
		</g>
		<g>
			<path class="st0" d="M465.5,341.8c-2.2,0-3.1-1.3-3.1-3.6v-17.4h2.5V338c0,0.9,0.4,1.4,1.3,1.4c0.7,0,1.1,0,1.1,0v2.2
				C467.1,341.6,466.6,341.8,465.5,341.8z"/>
		</g>
		<g>
			<path class="st0" d="M470.7,323.6v-2.9h2.9v2.9H470.7z M470.9,341.6v-14.6h2.5v14.6H470.9z"/>
		</g>
		<g>
			<path class="st0" d="M488.3,340.4c-1.1,1.1-2.3,1.6-4.1,1.6c-2.7,0-4.3-1.3-5.4-2.7c-0.7-1.1-1.3-2.7-1.3-4.9
				c0-2.2,0.4-3.8,1.3-4.9c1.1-1.4,2.7-2.7,5.2-2.7c1.8,0,3.1,0.5,4.1,1.6c0.9,0.9,1.6,2.2,1.8,3.8h-2.5c-0.2-1.1-0.5-1.8-1.1-2.3
				c-0.5-0.5-1.4-0.9-2.3-0.9c-1.1,0-2,0.4-2.5,0.9c-1.1,0.9-1.4,2.9-1.4,4.5c0,1.6,0.4,3.6,1.4,4.5c0.7,0.5,1.4,0.9,2.5,0.9
				s2-0.4,2.5-0.9c0.5-0.5,0.9-1.3,0.9-2.2h2.5C489.9,338.2,489.2,339.5,488.3,340.4z"/>
		</g>
		<g>
			<path class="st0" d="M492.6,341.6v-2.2l8.5-10.3h-8.5v-2.2H504v2.2l-8.5,10.3h8.5v2.2H492.6z"/>
		</g>
		<g>
			<path class="st0" d="M517.6,341.6v-9.2c0-2.2-0.9-3.4-3.2-3.4c-1.4,0-2.5,0.9-3.2,2.2c-0.5,1.1-0.5,2.5-0.5,3.8v6.8h-2.5v-14.6
				h2.2l0.2,2.2c0.7-1.6,2.7-2.5,4.3-2.5c3.2,0,5,2,5,5.4v9.5L517.6,341.6L517.6,341.6z"/>
		</g>
		<g>
			<path class="st0" d="M536.7,335.2h-10.3c0,1.3,0.5,2.7,1.4,3.6c0.7,0.7,1.6,1.1,2.7,1.1c1.1,0,2.2-0.4,2.7-0.9
				c0.4-0.4,0.7-0.7,0.9-1.6h2.3c-0.2,1.4-1.1,2.9-2.2,3.6c-1.1,0.7-2.3,1.1-3.8,1.1c-2,0-3.8-0.9-4.9-2.2c-1.3-1.4-1.8-3.4-1.8-5.4
				c0-1.8,0.4-3.2,1.1-4.7c1.1-1.8,2.9-3.1,5.6-3.1c1.8,0,3.4,0.7,4.5,1.8c1.3,1.3,1.8,3.2,1.8,5L536.7,335.2z M533.5,330.1
				c-0.5-0.7-1.6-1.3-2.9-1.3c-2.7,0-4,2.2-4,4.3h7.7C534.4,331.9,534,330.8,533.5,330.1z"/>
		</g>
		<g>
			<path class="st0" d="M539.8,347.7c-0.7,0-1.3,0-2-0.4v-2.2c0.5,0.2,1.3,0.2,1.8,0.2c1.1,0,1.6-0.9,1.6-1.8v-16.5h2.5v16.5
				C543.7,346.1,542.4,347.7,539.8,347.7z M541,323.6v-2.9h2.9v2.9H541z"/>
		</g>
		<g>
			<path class="st0" d="M16.8,370.6v-2.9h2.9v2.9H16.8z M17,388.4v-14.6h2.5v14.6H17z"/>
		</g>
		<g>
			<path class="st0" d="M42.5,388.4v-9.2c0-2-0.7-3.4-2.9-3.4c-0.9,0-1.6,0.4-2.2,0.9c-0.9,1.1-1.3,2.5-1.3,4v7.7h-2.5v-9.2
				c0-2-0.5-3.4-2.9-3.4c-1.1,0-1.8,0.5-2.5,1.3c-0.7,0.9-0.9,2.5-0.9,3.6v7.7h-2.5v-14.6H27l0.2,2.2c0.7-1.6,2.5-2.5,4.1-2.5
				c2.2,0,3.8,0.9,4.3,2.7c0.7-1.8,2.7-2.7,4.5-2.7c3.2,0,4.9,2.2,4.9,5.4v9.5H42.5z"/>
		</g>
		<g>
			<path class="st0" d="M49.9,388.4V385h3.4v3.4H49.9z"/>
		</g>
		<g>
			<path class="st0" d="M76.5,378.9c-1.1,1.1-2.7,1.6-5,1.6h-5v7.9h-2.5v-20.3h7.6c2.3,0,4.1,0.7,5.2,1.8c0.9,1.1,1.6,2.5,1.6,4.3
				C78.1,376.2,77.6,377.8,76.5,378.9z M71.3,370.4h-5v7.7h5c2.7,0,4.1-1.3,4.1-4C75.4,371.7,73.8,370.4,71.3,370.4z"/>
		</g>
		<g>
			<path class="st0" d="M88.2,376.2c-1.1,0-2.2,0.5-2.7,1.1c-1.3,1.1-1.3,3.1-1.3,4.7v6.5h-2.3v-14.6h2.2l0.2,2.5
				c0.7-1.8,2.5-2.7,4.3-2.7c0.4,0,0.7,0,1.1,0v2.3C89.1,376.2,88.6,376.2,88.2,376.2z"/>
		</g>
		<g>
			<path class="st0" d="M104.2,381.9H93.9c0,1.3,0.5,2.7,1.4,3.6c0.7,0.7,1.6,1.1,2.7,1.1c1.1,0,2.2-0.4,2.7-0.9
				c0.4-0.4,0.7-0.7,0.9-1.6h2.3c-0.2,1.4-1.1,2.9-2.2,3.6c-1.1,0.7-2.3,1.1-3.8,1.1c-2,0-3.8-0.9-4.9-2.2c-1.3-1.4-1.8-3.4-1.8-5.4
				c0-1.8,0.4-3.2,1.1-4.7c1.1-1.8,2.9-3.1,5.6-3.1c1.8,0,3.4,0.7,4.5,1.8c1.3,1.3,1.8,3.2,1.8,5L104.2,381.9z M100.8,376.9
				c-0.5-0.7-1.6-1.3-2.9-1.3c-2.7,0-4,2.2-4,4.3h7.7C101.7,378.7,101.3,377.6,100.8,376.9z"/>
		</g>
		<g>
			<path class="st0" d="M106.9,388.4v-2.2l8.5-10.3h-8.5v-2.2h11.3v2.2l-8.5,10.3h8.5v2.2H106.9z"/>
		</g>
		<g>
			<path class="st0" d="M127.4,391.4c-0.7,1.8-1.8,3.1-4,3.1c-1.3,0-2-0.2-2.2-0.4V392c0,0,0.7,0.2,1.8,0.2c1.1,0,1.8-0.4,2.2-1.4
				l0.9-2.5l-5.8-14.6h2.7l4.3,11.5l4.1-11.5h2.5L127.4,391.4z"/>
		</g>
		<g>
			<path class="st0" d="M145.9,388.4l-0.2-2c-0.9,1.4-2.7,2.3-4.3,2.3c-1.8,0-3.2-0.5-4.1-1.6c-1.4-1.4-2.2-3.6-2.2-6.1
				s0.7-4.9,2.2-6.3c0.9-0.9,2.3-1.4,4-1.4c1.6,0,3.4,0.7,4.3,2.2v-7.7h2.5v20.7L145.9,388.4L145.9,388.4z M144.3,376.5
				c-0.5-0.5-1.3-0.9-2.3-0.9c-3.2,0-4.1,2.9-4.1,5.6c0,2.7,0.9,5.6,4.1,5.6c1.1,0,1.8-0.4,2.3-0.9c1.3-1.1,1.6-2.9,1.6-4.7
				C145.9,379.4,145.4,377.6,144.3,376.5z"/>
		</g>
		<g>
			<path class="st0" d="M165.2,381.9h-10.3c0,1.3,0.5,2.7,1.4,3.6c0.7,0.7,1.6,1.1,2.7,1.1c1.1,0,2.2-0.4,2.7-0.9
				c0.4-0.4,0.7-0.7,0.9-1.6h2.3c-0.2,1.4-1.1,2.9-2.2,3.6c-1.1,0.7-2.3,1.1-3.8,1.1c-2,0-3.8-0.9-4.9-2.2c-1.3-1.4-1.8-3.4-1.8-5.4
				c0-1.8,0.4-3.2,1.1-4.7c1.1-1.8,2.9-3.1,5.6-3.1c1.8,0,3.4,0.7,4.5,1.8c1.3,1.3,1.8,3.2,1.8,5L165.2,381.9z M161.9,376.9
				c-0.5-0.7-1.6-1.3-2.9-1.3c-2.7,0-4,2.2-4,4.3h7.7C162.6,378.7,162.5,377.6,161.9,376.9z"/>
		</g>
		<g>
			<path class="st0" d="M178.6,388.4v-9.2c0-2.2-0.9-3.4-3.2-3.4c-1.4,0-2.5,0.9-3.2,2.2c-0.5,1.1-0.5,2.5-0.5,3.8v6.8h-2.5V374h2.2
				l0.2,2.2c0.7-1.6,2.7-2.5,4.3-2.5c3.2,0,5,2,5,5.4v9.5L178.6,388.4L178.6,388.4z"/>
		</g>
		<g>
			<path class="st0" d="M190.7,388.6c-3.1,0-4-2-4-4V376H184v-2.2h2.9V370l2.5-0.5v4.3h4.3v2.2h-4.3v8.5c0,1.4,0.5,2,2,2
				c1.1,0,2.5-0.2,2.5-0.2v2.2C193,388.4,192.1,388.6,190.7,388.6z"/>
		</g>
		<g>
			<path class="st0" d="M207.8,388.6c-1.3,0-2.2-0.9-2.2-2.2l0,0c-0.9,1.4-2.7,2.3-4.7,2.3c-3.4,0-5-2.2-5-4.5
				c0-1.8,1.3-4.3,5.2-4.5l4.5-0.2v-1.1c0-0.7,0-1.6-0.7-2.2c-0.5-0.5-1.3-0.7-2.3-0.7c-1.3,0-2.2,0.4-2.7,0.9
				c-0.5,0.5-0.7,1.1-0.7,1.8h-2.5c0-1.3,0.5-2.3,1.3-3.1c0.9-1.1,2.7-1.6,4.5-1.6c2.9,0,4.5,1.3,5,2.9c0.4,0.7,0.4,1.4,0.4,2.2v7
				c0,0.7,0.4,0.9,0.7,0.9c0.2,0,0.7,0,0.7,0v1.8C208.9,388.6,208.3,388.6,207.8,388.6z M205.6,381.4l-4,0.2c-1.4,0-3.2,0.7-3.2,2.7
				c0,1.3,0.7,2.5,2.9,2.5c1.1,0,2.2-0.4,3.1-1.3c0.9-0.9,1.3-2.2,1.3-3.2L205.6,381.4L205.6,381.4z"/>
		</g>
		<g>
			<path class="st0" d="M232.2,388.4l-3.8-8.5h-5.6v8.5h-2.5v-20.3h7.9c2.3,0,4.1,0.7,5.2,1.8c0.9,1.1,1.6,2.3,1.6,4.1
				c0,1.8-0.5,3.1-1.6,4c-0.5,0.7-1.4,1.1-2.5,1.4l4.1,9H232.2z M228.1,370.4h-5.4v7.2h5.4c2.3,0,4.1-0.9,4.1-3.6
				S230.4,370.4,228.1,370.4z"/>
		</g>
		<g>
			<path class="st0" d="M237.8,388.4v-2.2l8.5-10.3h-8.5v-2.2h11.3v2.2l-8.5,10.3h8.5v2.2H237.8z"/>
		</g>
		<g>
			<path class="st0" d="M264.8,381.9h-10.3c0,1.3,0.5,2.7,1.4,3.6c0.7,0.7,1.6,1.1,2.7,1.1s2.2-0.4,2.7-0.9c0.4-0.4,0.7-0.7,0.9-1.6
				h2.3c-0.2,1.4-1.1,2.9-2.2,3.6c-1.1,0.7-2.3,1.1-3.8,1.1c-2,0-3.8-0.9-4.9-2.2c-1.3-1.4-1.8-3.4-1.8-5.4c0-1.8,0.4-3.2,1.1-4.7
				c1.1-1.8,2.9-3.1,5.6-3.1c1.8,0,3.4,0.7,4.5,1.8c1.3,1.3,1.8,3.2,1.8,5L264.8,381.9z M261.4,376.9c-0.5-0.7-1.6-1.3-2.9-1.3
				c-2.7,0-4,2.2-4,4.3h7.7C262.3,378.7,261.9,377.6,261.4,376.9z"/>
		</g>
		<g>
			<path class="st0" d="M278.5,387.1c-1.1,1.1-2.3,1.6-4.1,1.6c-2.7,0-4.3-1.3-5.4-2.7c-0.7-1.1-1.3-2.7-1.3-4.9
				c0-2.2,0.4-3.8,1.3-4.9c1.1-1.4,2.7-2.7,5.2-2.7c1.8,0,3.1,0.5,4.1,1.6c0.9,0.9,1.6,2.2,1.8,3.8h-2.5c-0.2-1.1-0.5-1.8-1.1-2.3
				c-0.5-0.5-1.4-0.9-2.3-0.9c-1.1,0-2,0.4-2.5,0.9c-1.1,0.9-1.4,2.9-1.4,4.5c0,1.6,0.4,3.6,1.4,4.5c0.7,0.5,1.4,0.9,2.5,0.9
				s2-0.4,2.5-0.9c0.5-0.5,0.9-1.3,0.9-2.2h2.5C280.1,385.1,279.5,386.2,278.5,387.1z"/>
		</g>
		<g>
			<path class="st0" d="M283,388.4v-2.2l8.5-10.3H283v-2.2h11.3v2.2l-8.5,10.3h8.5v2.2H283z"/>
		</g>
		<g>
			<path class="st0" d="M303.3,391.4c-0.7,1.8-1.8,3.1-4,3.1c-1.3,0-2-0.2-2.2-0.4V392c0,0,0.7,0.2,1.8,0.2s1.8-0.4,2.2-1.4l0.9-2.5
				l-5.8-14.6h2.7l4.3,11.5l4.1-11.5h2.5L303.3,391.4z"/>
		</g>
		<g>
			<path class="st0" d="M323.4,387.3c-0.9,0.9-2.3,1.4-4,1.4c-1.6,0-3.4-0.7-4.3-2.2v8.1h-2.5v-20.9h2.2l0.2,2
				c0.9-1.4,2.7-2.3,4.3-2.3c1.8,0,3.2,0.5,4.1,1.6c1.4,1.4,2.2,3.6,2.2,6.1S324.9,385.9,323.4,387.3z M319.1,375.6
				c-1.1,0-1.8,0.4-2.3,0.9c-1.3,1.1-1.6,2.9-1.6,4.7c0,1.8,0.4,3.6,1.6,4.7c0.5,0.5,1.3,0.9,2.3,0.9c3.2,0,4.1-2.9,4.1-5.6
				C323.1,378.5,322.3,375.6,319.1,375.6z"/>
		</g>
		<g>
			<path class="st0" d="M339.6,387.1c-1.1,1.1-2.5,1.6-4.3,1.6c-1.8,0-3.4-0.7-4.3-1.6c-1.6-1.6-2.2-3.6-2.2-5.9s0.5-4.3,2.2-5.9
				c1.1-1.1,2.5-1.6,4.3-1.6c1.8,0,3.4,0.7,4.3,1.6c1.6,1.6,2.2,3.6,2.2,5.9S341.2,385.5,339.6,387.1z M337.8,376.5
				c-0.5-0.5-1.4-1.1-2.7-1.1c-1.1,0-2,0.4-2.7,1.1c-1.1,1.1-1.4,2.9-1.4,4.5c0,1.6,0.4,3.4,1.4,4.5c0.5,0.5,1.4,1.1,2.7,1.1
				c1.1,0,2-0.4,2.7-1.1c1.1-1.1,1.4-2.9,1.4-4.5C339.2,379.4,338.9,377.6,337.8,376.5z"/>
		</g>
		<g>
			<path class="st0" d="M355.6,387.1c-1.1,1.1-2.9,1.6-4.7,1.6c-1.8,0-3.4-0.4-4.7-1.6c-0.9-0.9-1.4-2.2-1.4-3.4h2.5
				c0,1.1,0.5,1.8,1.3,2.3c0.7,0.5,1.6,0.7,2.7,0.7s2-0.2,2.7-0.7c0.4-0.4,0.7-0.9,0.7-1.6c0-1.1-0.7-1.8-2.3-2.2l-3.2-0.4
				c-2.2-0.4-3.6-1.6-3.6-4c0-1.1,0.5-2.2,1.3-2.9c0.9-0.9,2.5-1.6,4.3-1.6c2,0,3.6,0.5,4.7,1.8c0.7,0.7,1.1,1.6,1.1,2.9h-2.5
				c0-0.7-0.4-1.4-0.9-1.8c-0.5-0.5-1.4-0.7-2.3-0.7c-0.5,0-1.1,0-1.6,0.4c-0.9,0.4-1.4,1.1-1.4,2c0,1.3,0.7,1.8,2,2
				c0.7,0.2,2,0.2,3.6,0.5c2.2,0.4,3.8,1.8,3.8,4C356.7,385.5,356.1,386.4,355.6,387.1z"/>
		</g>
		<g>
			<path class="st0" d="M371.6,387.3c-0.9,0.9-2.3,1.4-4,1.4c-1.6,0-3.4-0.7-4.3-2.2v8.1h-2.5v-20.9h2.2l0.2,2
				c0.9-1.4,2.7-2.3,4.3-2.3c1.8,0,3.2,0.5,4.1,1.6c1.4,1.4,2.2,3.6,2.2,6.1S373,385.9,371.6,387.3z M367.1,375.6
				c-1.1,0-1.8,0.4-2.3,0.9c-1.3,1.1-1.6,2.9-1.6,4.7c0,1.8,0.4,3.6,1.6,4.7c0.5,0.5,1.3,0.9,2.3,0.9c3.2,0,4.1-2.9,4.1-5.6
				C371.2,378.5,370.3,375.6,367.1,375.6z"/>
		</g>
		<g>
			<path class="st0" d="M387.8,387.1c-1.1,1.1-2.5,1.6-4.3,1.6c-1.8,0-3.4-0.7-4.3-1.6c-1.6-1.6-2.2-3.6-2.2-5.9s0.5-4.3,2.2-5.9
				c1.1-1.1,2.5-1.6,4.3-1.6c1.8,0,3.4,0.7,4.3,1.6c1.6,1.6,2.2,3.6,2.2,5.9S389.2,385.5,387.8,387.1z M386,376.5
				c-0.5-0.5-1.4-1.1-2.7-1.1c-1.1,0-2,0.4-2.7,1.1c-1.1,1.1-1.4,2.9-1.4,4.5c0,1.6,0.4,3.4,1.4,4.5c0.5,0.5,1.4,1.1,2.7,1.1
				c1.1,0,2-0.4,2.7-1.1c1.1-1.1,1.4-2.9,1.4-4.5C387.3,379.4,387.1,377.6,386,376.5z"/>
		</g>
		<g>
			<path class="st0" d="M397,388.6c-2.2,0-3.1-1.3-3.1-3.6v-17.3h2.5V385c0,0.9,0.4,1.4,1.3,1.4c0.7,0,1.1,0,1.1,0v2.2
				C398.8,388.4,398.2,388.6,397,388.6z"/>
		</g>
		<g>
			<path class="st0" d="M402.2,370.6v-2.9h2.9v2.9H402.2z M402.4,388.4v-14.6h2.5v14.6H402.4z"/>
		</g>
		<g>
			<path class="st0" d="M414.9,388.6c-3.1,0-4-2-4-4V376h-2.9v-2.2h2.9V370l2.5-0.5v4.3h4.3v2.2h-4.3v8.5c0,1.4,0.5,2,2,2
				c1.1,0,2.5-0.2,2.5-0.2v2.2C417.1,388.4,416.2,388.6,414.9,388.6z"/>
		</g>
		<g>
			<path class="st0" d="M432.8,381.9h-10.3c0,1.3,0.5,2.7,1.4,3.6c0.7,0.7,1.6,1.1,2.7,1.1s2.2-0.4,2.7-0.9c0.4-0.4,0.7-0.7,0.9-1.6
				h2.3c-0.2,1.4-1.1,2.9-2.2,3.6c-1.1,0.7-2.3,1.1-3.8,1.1c-2,0-3.8-0.9-4.9-2.2c-1.3-1.4-1.8-3.4-1.8-5.4c0-1.8,0.4-3.2,1.1-4.7
				c1.1-1.8,2.9-3.1,5.6-3.1c1.8,0,3.4,0.7,4.5,1.8c1.3,1.3,1.8,3.2,1.8,5L432.8,381.9z M429.3,376.9c-0.5-0.7-1.6-1.3-2.9-1.3
				c-2.7,0-4,2.2-4,4.3h7.7C430.2,378.7,429.9,377.6,429.3,376.9z"/>
		</g>
		<g>
			<path class="st0" d="M435.6,394.5c-0.7,0-1.3,0-2-0.4V392c0.5,0.2,1.3,0.2,1.8,0.2c1.1,0,1.6-0.9,1.6-1.8v-16.5h2.5v16.5
				C439.6,392.9,438.3,394.5,435.6,394.5z M436.9,370.6v-2.9h2.9v2.9H436.9z"/>
		</g>
		<g>
			<path class="st0" d="M464.4,378.9c-1.1,1.1-2.7,1.6-5,1.6h-5v7.9h-2.5v-20.3h7.6c2.3,0,4.1,0.7,5.2,1.8c0.9,1.1,1.6,2.5,1.6,4.3
				C466,376.2,465.5,377.8,464.4,378.9z M459.4,370.4h-5v7.7h5c2.7,0,4.1-1.3,4.1-4C463.5,371.7,461.9,370.4,459.4,370.4z"/>
		</g>
		<g>
			<path class="st0" d="M479,387.1c-1.1,1.1-2.5,1.6-4.3,1.6c-1.8,0-3.4-0.7-4.3-1.6c-1.6-1.6-2.2-3.6-2.2-5.9s0.5-4.3,2.2-5.9
				c1.1-1.1,2.5-1.6,4.3-1.6c1.8,0,3.4,0.7,4.3,1.6c1.6,1.6,2.2,3.6,2.2,5.9S480.6,385.5,479,387.1z M477.2,376.5
				c-0.5-0.5-1.4-1.1-2.7-1.1c-1.1,0-2,0.4-2.7,1.1c-1.1,1.1-1.4,2.9-1.4,4.5c0,1.6,0.4,3.4,1.4,4.5c0.5,0.5,1.4,1.1,2.7,1.1
				c1.1,0,2-0.4,2.7-1.1c1.1-1.1,1.4-2.9,1.4-4.5C478.4,379.4,478.2,377.6,477.2,376.5z"/>
		</g>
		<g>
			<path class="st0" d="M488.1,388.6c-2.2,0-3.1-1.3-3.1-3.6v-17.3h2.5V385c0,0.9,0.4,1.4,1.3,1.4c0.7,0,1.1,0,1.1,0v2.2
				C489.9,388.4,489.4,388.6,488.1,388.6z"/>
		</g>
		<g>
			<path class="st0" d="M503.2,387.1c-1.1,1.1-2.9,1.6-4.7,1.6c-1.8,0-3.4-0.4-4.7-1.6c-0.9-0.9-1.4-2.2-1.4-3.4h2.5
				c0,1.1,0.5,1.8,1.3,2.3c0.7,0.5,1.6,0.7,2.7,0.7s2-0.2,2.7-0.7c0.4-0.4,0.7-0.9,0.7-1.6c0-1.1-0.7-1.8-2.3-2.2l-3.2-0.4
				c-2.2-0.4-3.6-1.6-3.6-4c0-1.1,0.5-2.2,1.3-2.9c0.9-0.9,2.5-1.6,4.3-1.6c2,0,3.6,0.5,4.7,1.8c0.7,0.7,1.1,1.6,1.1,2.9H502
				c0-0.7-0.4-1.4-0.9-1.8c-0.5-0.5-1.4-0.7-2.3-0.7c-0.5,0-1.1,0-1.6,0.4c-0.9,0.4-1.4,1.1-1.4,2c0,1.3,0.7,1.8,2,2
				c0.7,0.2,2,0.2,3.6,0.5c2.2,0.4,3.8,1.8,3.8,4C504.3,385.5,504,386.4,503.2,387.1z"/>
		</g>
		<g>
			<path class="st0" d="M518.4,388.4l-4.5-7l-2.9,3.1v4h-2.5v-20.7h2.5v13.5l6.7-7.4h2.9l-5.2,5.8l5.8,8.8
				C521,388.4,518.4,388.4,518.4,388.4z"/>
		</g>
		<g>
			<path class="st0" d="M524.1,370.6v-2.9h2.9v2.9H524.1z M524.3,388.4v-14.6h2.5v14.6H524.3z"/>
		</g>
		<g>
			<path class="st0" d="M543.9,381.9h-10.3c0,1.3,0.5,2.7,1.4,3.6c0.7,0.7,1.6,1.1,2.7,1.1c1.1,0,2.2-0.4,2.7-0.9
				c0.4-0.4,0.7-0.7,0.9-1.6h2.3c-0.2,1.4-1.1,2.9-2.2,3.6c-1.1,0.7-2.3,1.1-3.8,1.1c-2,0-3.8-0.9-4.9-2.2c-1.3-1.4-1.8-3.4-1.8-5.4
				c0-1.8,0.4-3.2,1.1-4.7c1.1-1.8,2.9-3.1,5.6-3.1c1.8,0,3.4,0.7,4.5,1.8c1.3,1.3,1.8,3.2,1.8,5L543.9,381.9z M540.5,376.9
				c-0.5-0.7-1.6-1.3-2.9-1.3c-2.7,0-4,2.2-4,4.3h7.7C541.4,378.7,541,377.6,540.5,376.9z"/>
		</g>
		<g>
			<path class="st0" d="M546.8,394.5c-0.7,0-1.3,0-2-0.4V392c0.5,0.2,1.3,0.2,1.8,0.2c1.1,0,1.6-0.9,1.6-1.8v-16.5h2.5v16.5
				C550.7,392.9,549.5,394.5,546.8,394.5z M548,370.6v-2.9h2.9v2.9H548z"/>
		</g>
		<g>
			<path class="st0" d="M17.2,435.1v-20.3h2.5v18h9.9v2.3H17.2z"/>
		</g>
		<g>
			<path class="st0" d="M43.8,428.7H33.5c0,1.3,0.5,2.7,1.4,3.6c0.7,0.7,1.6,1.1,2.7,1.1c1.1,0,2.2-0.4,2.7-0.9
				c0.4-0.4,0.7-0.7,0.9-1.6h2.3c-0.2,1.4-1.1,2.9-2.2,3.6c-1.1,0.7-2.3,1.1-3.8,1.1c-2,0-3.8-0.9-4.9-2.2c-1.3-1.4-1.8-3.4-1.8-5.4
				c0-1.8,0.4-3.2,1.1-4.7c1.1-1.8,2.9-3.1,5.6-3.1c1.8,0,3.4,0.7,4.5,1.8c1.3,1.3,1.8,3.2,1.8,5L43.8,428.7z M40.5,423.6
				c-0.5-0.7-1.6-1.3-2.9-1.3c-2.7,0-4,2.2-4,4.3h7.7C41.4,425.6,41.1,424.4,40.5,423.6z"/>
		</g>
		<g>
			<path class="st0" d="M57.6,434.1c-1.1,1.1-2.3,1.6-4.1,1.6c-2.7,0-4.3-1.3-5.4-2.7c-0.7-1.1-1.3-2.7-1.3-4.9
				c0-2.2,0.4-3.8,1.3-4.9c1.1-1.4,2.7-2.7,5.2-2.7c1.8,0,3.1,0.5,4.1,1.6c0.9,0.9,1.6,2.2,1.8,3.8h-2.5c-0.2-1.1-0.5-1.8-1.1-2.3
				c-0.5-0.5-1.4-0.9-2.3-0.9c-1.1,0-2,0.4-2.5,0.9c-1.1,0.9-1.4,2.9-1.4,4.5c0,1.6,0.4,3.6,1.4,4.5c0.7,0.5,1.4,0.9,2.5,0.9
				c1.1,0,2-0.4,2.5-0.9c0.5-0.5,0.9-1.3,0.9-2.2h2.5C59.2,431.9,58.5,433,57.6,434.1z"/>
		</g>
		<g>
			<path class="st0" d="M72.4,435.1V426c0-2.2-0.9-3.4-3.2-3.4c-1.4,0-2.5,0.9-3.2,2.2c-0.5,1.1-0.5,2.5-0.5,3.8v6.8h-2.5v-20.9h2.5
				v8.1c0.9-1.4,2.7-2.3,4.3-2.3c3.2,0,5,2,5,5.4v9.5H72.4z"/>
		</g>
		<g>
			<path class="st0" d="M90.5,435.3c-1.3,0-2.2-0.9-2.2-2.2l0,0c-0.9,1.4-2.7,2.3-4.7,2.3c-3.4,0-5-2.2-5-4.5c0-1.8,1.3-4.3,5.2-4.5
				l4.5-0.2v-1.1c0-0.7,0-1.6-0.7-2.2c-0.5-0.5-1.3-0.7-2.3-0.7c-1.3,0-2.2,0.4-2.7,0.9c-0.5,0.5-0.7,1.1-0.7,1.8h-2.3
				c0-1.3,0.5-2.3,1.3-3.1c0.9-1.1,2.7-1.6,4.5-1.6c2.9,0,4.5,1.3,5,2.9c0.4,0.7,0.4,1.4,0.4,2.2v7c0,0.7,0.4,0.9,0.7,0.9
				c0.2,0,0.7,0,0.7,0v1.8C91.6,435.3,91.1,435.3,90.5,435.3z M88.2,428.1l-4,0.2c-1.4,0-3.2,0.7-3.2,2.7c0,1.3,0.7,2.5,2.9,2.5
				c1.1,0,2.2-0.4,3.1-1.3s1.3-2.2,1.3-3.2L88.2,428.1L88.2,428.1z"/>
		</g>
		<g>
			<path class="st0" d="M115.5,435.1l-6.1-10.6l-4.1,4.9v5.8h-2.5v-20.3h2.5v10.8l9.4-10.8h3.2l-6.7,7.7l7.4,12.6L115.5,435.1
				L115.5,435.1z"/>
		</g>
		<g>
			<path class="st0" d="M132.1,435.3c-1.3,0-2.2-0.9-2.2-2.2l0,0c-0.9,1.4-2.7,2.3-4.7,2.3c-3.4,0-5-2.2-5-4.5
				c0-1.8,1.3-4.3,5.2-4.5l4.5-0.2v-1.1c0-0.7,0-1.6-0.7-2.2c-0.5-0.5-1.3-0.7-2.3-0.7c-1.3,0-2.2,0.4-2.7,0.9
				c-0.5,0.5-0.7,1.1-0.7,1.8h-2.3c0-1.3,0.5-2.3,1.3-3.1c0.9-1.1,2.7-1.6,4.5-1.6c2.9,0,4.5,1.3,5,2.9c0.4,0.7,0.4,1.4,0.4,2.2v7
				c0,0.7,0.4,0.9,0.7,0.9c0.2,0,0.7,0,0.7,0v1.8C133.1,435.3,132.6,435.3,132.1,435.3z M129.9,428.1l-4,0.2c-1.4,0-3.2,0.7-3.2,2.7
				c0,1.3,0.7,2.5,2.9,2.5c1.1,0,2.2-0.4,3.1-1.3c0.9-0.9,1.3-2.2,1.3-3.2L129.9,428.1L129.9,428.1z"/>
		</g>
		<g>
			<path class="st0" d="M147.2,434.1c-1.1,1.1-2.3,1.6-4.1,1.6c-2.7,0-4.3-1.3-5.4-2.7c-0.7-1.1-1.3-2.7-1.3-4.9
				c0-2.2,0.4-3.8,1.3-4.9c1.1-1.4,2.7-2.7,5.2-2.7c1.8,0,3.1,0.5,4.1,1.6c0.9,0.9,1.6,2.2,1.8,3.8h-2.5c-0.2-1.1-0.5-1.8-1.1-2.3
				c-0.5-0.5-1.4-0.9-2.3-0.9c-1.1,0-2,0.4-2.5,0.9c-1.1,0.9-1.4,2.9-1.4,4.5c0,1.6,0.4,3.6,1.4,4.5c0.7,0.5,1.4,0.9,2.5,0.9
				c1.1,0,2-0.4,2.5-0.9c0.5-0.5,0.9-1.3,0.9-2.2h2.5C148.8,431.9,148.1,433,147.2,434.1z"/>
		</g>
		<g>
			<path class="st0" d="M151.5,435.1V433l8.5-10.3h-8.5v-2.2h11.3v2.2l-8.5,10.3h8.5v2.2H151.5z"/>
		</g>
		<g>
			<path class="st0" d="M172,438.2c-0.7,1.8-1.8,3.1-4,3.1c-1.3,0-2-0.2-2.2-0.4v-2.2c0,0,0.7,0.2,1.8,0.2s1.8-0.4,2.2-1.4l0.9-2.5
				l-5.8-14.6h2.7l4.3,11.5l4.1-11.5h2.5L172,438.2z"/>
		</g>
		<g>
			<path class="st0" d="M190.7,435.1V426c0-2.2-0.9-3.4-3.2-3.4c-1.4,0-2.5,0.9-3.2,2.2c-0.5,1.1-0.5,2.5-0.5,3.8v6.8h-2.5v-14.6
				h2.2l0.2,2.2c0.7-1.6,2.7-2.5,4.3-2.5c3.2,0,5,2,5,5.4v9.5L190.7,435.1L190.7,435.1z M186,419.3l-0.9-1.4l4.9-3.6l1.3,2
				L186,419.3z"/>
		</g>
		<g>
			<path class="st0" d="M208,433.9c-1.1,1.1-2.9,1.6-4.7,1.6s-3.4-0.4-4.7-1.6c-0.9-0.9-1.4-2.2-1.4-3.4h2.5c0,1.1,0.5,1.8,1.3,2.3
				c0.7,0.5,1.6,0.7,2.7,0.7c1.1,0,2-0.2,2.7-0.7c0.4-0.4,0.7-0.9,0.7-1.6c0-1.1-0.7-1.8-2.3-2.2l-3.2-0.4c-2.2-0.4-3.6-1.6-3.6-4
				c0-1.1,0.5-2.2,1.3-2.9c0.9-0.9,2.5-1.6,4.3-1.6c2,0,3.6,0.5,4.7,1.8c0.7,0.7,1.1,1.6,1.1,2.9h-2.5c0-0.7-0.4-1.4-0.9-1.8
				c-0.5-0.5-1.4-0.7-2.3-0.7c-0.5,0-1.1,0-1.6,0.4c-0.9,0.4-1.4,1.1-1.4,2c0,1.3,0.7,1.8,2,2c0.7,0.2,2,0.2,3.6,0.5
				c2.2,0.4,3.8,1.8,3.8,4C209,432.3,208.5,433.2,208,433.9z"/>
		</g>
		<g>
			<path class="st0" d="M223.1,435.1l-4.5-7l-2.9,3.1v4h-2.5v-20.7h2.5v13.5l6.7-7.4h2.9l-5.2,5.8l5.8,8.8L223.1,435.1L223.1,435.1z
				"/>
		</g>
		<g>
			<path class="st0" d="M228.6,417.3v-2.9h2.9v2.9H228.6z M228.8,435.1v-14.6h2.5v14.6H228.8z"/>
		</g>
		<g>
			<path class="st0" d="M248.4,428.7h-10.3c0,1.3,0.5,2.7,1.4,3.6c0.7,0.7,1.6,1.1,2.7,1.1c1.1,0,2.2-0.4,2.7-0.9
				c0.4-0.4,0.7-0.7,0.9-1.6h2.3c-0.2,1.4-1.1,2.9-2.2,3.6c-1.1,0.7-2.3,1.1-3.8,1.1c-2,0-3.8-0.9-4.9-2.2c-1.3-1.4-1.8-3.4-1.8-5.4
				c0-1.8,0.4-3.2,1.1-4.7c1.1-1.8,2.9-3.1,5.6-3.1c1.8,0,3.4,0.7,4.5,1.8c1.3,1.3,1.8,3.2,1.8,5L248.4,428.7z M245,423.6
				c-0.5-0.7-1.6-1.3-2.9-1.3c-2.7,0-4,2.2-4,4.3h7.7C245.9,425.6,245.7,424.4,245,423.6z"/>
		</g>
		<g>
			<path class="st0" d="M263.7,440.4c-1.4,1.4-3.8,1.6-5.9,1.6c-2,0-4.1-0.4-5.6-1.6c-0.5-0.5-1.1-1.4-1.1-2.5
				c0-1.4,0.9-2.7,2.2-3.2c-0.9-0.4-1.6-1.3-1.6-2.5c0-1.3,0.9-2.3,2-2.9c-1.1-0.9-1.6-2.3-1.6-3.8c0-1.6,0.5-2.7,1.4-3.6
				c1.1-1.1,2.3-1.6,4.3-1.6c1.4,0,2.5,0.4,3.4,0.9c0.5-1.3,1.6-2,3.1-2c0.2,0,0.5,0,0.7,0v2c-0.2,0-0.4,0-0.5,0
				c-0.9,0-1.6,0.5-1.8,1.3c0.5,0.7,0.9,1.8,0.9,3.1c0,1.4-0.5,2.5-1.3,3.4c-0.9,1.1-2.3,1.8-4.3,1.8c-0.9,0-1.4,0-2.5-0.4
				c-0.5,0.2-1.3,0.5-1.3,1.3c0,1.3,1.3,1.4,2.2,1.4h2.9c1.8,0,3.6,0.4,4.9,1.4c0.7,0.7,1.1,1.6,1.1,2.9
				C265,438.6,264.4,439.6,263.7,440.4z M258.9,435h-3.4c-0.9,0.4-1.8,1.3-1.8,2.3c0,0.7,0.2,1.1,0.5,1.4c0.9,0.9,2.7,1.1,4,1.1
				s3.1-0.2,4-1.1c0.4-0.4,0.5-0.9,0.5-1.4C262.6,435.1,260.5,435,258.9,435z M257.6,422.2c-2,0-3.2,1.4-3.2,3.2
				c0,1.8,1.3,3.2,3.2,3.2c2,0,3.2-1.4,3.2-3.2C261,423.6,259.8,422.2,257.6,422.2z"/>
		</g>
		<g>
			<path class="st0" d="M277.7,433.9c-1.1,1.1-2.5,1.6-4.3,1.6c-1.8,0-3.4-0.7-4.3-1.6c-1.6-1.6-2.2-3.6-2.2-5.9s0.5-4.3,2.2-5.9
				c1.1-1.1,2.5-1.6,4.3-1.6c1.8,0,3.4,0.7,4.3,1.6c1.6,1.6,2.2,3.6,2.2,5.9C279.9,430.3,279.4,432.3,277.7,433.9z M275.9,423.5
				c-0.5-0.5-1.4-1.1-2.7-1.1c-1.1,0-2,0.4-2.7,1.1c-1.1,1.1-1.4,2.9-1.4,4.5c0,1.6,0.4,3.4,1.4,4.5c0.5,0.5,1.4,1.1,2.7,1.1
				c1.1,0,2-0.4,2.7-1.1c1.1-1.1,1.4-2.9,1.4-4.5C277.4,426.3,277,424.5,275.9,423.5z"/>
		</g>
	</g>
	<g>
		<g>
			<path class="st0" d="M58.3,204.8L51,191.9l-4.7,5.4v7.4h-5v-27.2h5v12.6l10.8-12.6H63l-8.6,10.4l9.7,16.9L58.3,204.8L58.3,204.8z
				"/>
		</g>
		<g>
			<path class="st0" d="M129.9,202.3c-2.2,2.2-5.2,2.9-8.6,2.9c-2.9,0-5.9-0.7-8.1-2.9c-1.6-1.3-2.9-3.6-2.9-6.1h5
				c0,1.3,0.5,2.5,1.4,3.4c1.1,1.1,3.1,1.4,4.5,1.4c1.8,0,3.6-0.4,4.7-1.4c0.5-0.7,1.1-1.3,1.1-2.5c0-2-1.6-2.9-3.2-3.2
				c-1.8-0.4-4.1-0.4-5.9-0.7c-3.8-0.5-6.8-3.1-6.8-7.6c0-2.2,0.9-4,2.3-5.4c1.8-1.8,4.9-2.9,7.9-2.9c2.9,0,5.8,0.9,7.6,2.7
				c1.6,1.6,2.7,3.6,2.7,5.8h-5c0-0.9-0.5-2-1.3-2.7c-0.9-0.9-2.7-1.4-4.1-1.4c-1.6,0-3.2,0.4-4.5,1.4c-0.5,0.5-0.9,1.3-0.9,2.3
				c0,1.8,1.1,2.7,2.7,2.9c1.8,0.2,4.1,0.5,5.9,0.7c4.1,0.5,7.6,3.2,7.6,7.9C132.3,199.2,131.2,201,129.9,202.3z"/>
		</g>
		<g>
			<path class="st0" d="M198.6,204.8l-1.8-5.2H186l-1.8,5.2h-5l9.5-27.2h5.4l9.5,27.2H198.6z M191.4,183.6l-3.8,11.5h7.7
				L191.4,183.6z"/>
		</g>
		<g>
			<path class="st0" d="M263.9,194.9h-5.8v9.7h-4.9v-27.2h10.6c6.3,0,9.5,3.4,9.5,8.6C273.4,191.5,270.2,194.9,263.9,194.9z
				 M263.7,182h-5.6v8.8h5.6c3.2,0,4.9-1.8,4.9-4.3C268.6,183.8,266.9,182,263.7,182z"/>
		</g>
		<rect x="85.1" y="123.2" class="st0" width="1.8" height="140.3"/>
		<rect x="15" y="123.2" class="st0" width="1.8" height="140.3"/>
		<rect x="155.3" y="123.2" class="st0" width="1.8" height="140.3"/>
		<rect x="295.5" y="123.2" class="st0" width="1.8" height="140.3"/>
		<rect x="225.4" y="123.2" class="st0" width="1.8" height="140.3"/>
	</g>
</g>
</svg>
