<?xml version="1.0" encoding="utf-8"?>
<!-- Generator: Adobe Illustrator 23.0.6, SVG Export Plug-In . SVG Version: 6.00 Build 0)  -->
<svg version="1.1" id="Layer_1" xmlns="http://www.w3.org/2000/svg" xmlns:xlink="http://www.w3.org/1999/xlink" x="0px" y="0px"
	 viewBox="0 0 92.6 36.8" style="enable-background:new 0 0 92.6 36.8;" xml:space="preserve">
<style type="text/css">
	.st0{fill:#FFFFFF;}
</style>
<g>
	<path class="st0" d="M21.3,12.9l-4.7,11.6h-2.7L20,10.2h2.8L29,24.5h-2.8"/>
	<path class="st0" d="M46.7,10.2l-6.3,14.3h-2.9l-6-14.3h3.1l4.4,10.9l4.4-10.9H46.7z"/>
	<polyline class="st0" points="51.7,24.5 61.6,24.5 61.6,22.2 51.7,22.2 	"/>
	<path class="st0" d="M66.8,17.4c0-4.8,2.4-7.3,7.2-7.3c4.7,0,7.1,2.4,7.1,7.3c0,4-1.5,6.3-4.4,7.1l2.3,2.7l-2.1,1.6l-3.2-4.1
		C69.3,24.6,67,22.2,66.8,17.4z M74,22.3c2.9,0,4.3-1.7,4.3-5c0-3.3-1.4-4.9-4.3-4.9c-3,0-4.4,1.6-4.4,4.9
		C69.6,20.6,71,22.3,74,22.3z"/>
	<polyline class="st0" points="51.7,18.5 61.6,18.5 61.6,16.1 51.7,16.1 	"/>
	<polyline class="st0" points="51.7,12.5 61.6,12.5 61.6,10.2 51.7,10.2 	"/>
</g>
</svg>
