<?xml version="1.0" encoding="utf-8"?>
<!-- Generator: Adobe Illustrator 24.0.3, SVG Export Plug-In . SVG Version: 6.00 Build 0)  -->
<svg version="1.1" id="Layer_1" xmlns="http://www.w3.org/2000/svg" xmlns:xlink="http://www.w3.org/1999/xlink" x="0px" y="0px"
	 viewBox="0 0 46 46" style="enable-background:new 0 0 46 46;" xml:space="preserve">
<style type="text/css">
	.st0{fill:#FFFFFF;}
</style>
<g>
	<g>
		<g>
			<path class="st0" d="M46,23C46,10.3,35.7,0,23,0S0,10.3,0,23s10.3,23,23,23S46,35.7,46,23z M3.8,23C3.8,12.4,12.4,3.8,23,3.8
				S42.2,12.4,42.2,23S33.6,42.2,23,42.2S3.8,33.6,3.8,23z"/>
			<path class="st0" d="M33.9,28.2c0.7-0.7,0.7-2,0-2.7l-9.6-9.6c-0.7-0.7-2-0.7-2.7,0l-9.6,9.6c-0.7,0.7-0.7,2,0,2.7
				c0.7,0.7,2,0.7,2.7,0L23,20l8.2,8.2C32,28.9,33.2,28.9,33.9,28.2z"/>
		</g>
	</g>
</g>
</svg>
