<?xml version="1.0" encoding="utf-8"?>
<!-- Generator: Adobe Illustrator 23.0.6, SVG Export Plug-In . SVG Version: 6.00 Build 0)  -->
<svg version="1.1" id="Layer_1" xmlns="http://www.w3.org/2000/svg" xmlns:xlink="http://www.w3.org/1999/xlink" x="0px" y="0px"
	 viewBox="0 0 46 46" style="enable-background:new 0 0 46 46;" xml:space="preserve">
<style type="text/css">
	.st0{fill:#FFFFFF;}
</style>
<g>
	<g>
		<path class="st0" d="M4.4,16.2c0.6,0.4,2.3,1.6,5.3,3.7c2.9,2,5.2,3.6,6.7,4.7c0.2,0.1,0.5,0.4,1.1,0.8c0.6,0.4,1,0.7,1.4,1
			c0.4,0.2,0.8,0.5,1.3,0.8c0.5,0.3,1,0.5,1.5,0.7c0.5,0.2,0.9,0.2,1.3,0.2h0h0c0.4,0,0.8-0.1,1.3-0.2c0.5-0.2,1-0.4,1.5-0.7
			c0.5-0.3,1-0.6,1.3-0.8c0.4-0.2,0.8-0.6,1.4-1c0.6-0.4,0.9-0.7,1.1-0.8c1.6-1.1,5.6-3.9,12-8.3c1.2-0.9,2.3-1.9,3.1-3.2
			c0.8-1.2,1.3-2.5,1.3-3.9c0-1.1-0.4-2.1-1.2-2.9C44,5.5,43,5.1,41.9,5.1H4.1c-1.3,0-2.3,0.4-3,1.3C0.4,7.3,0,8.4,0,9.8
			c0,1.1,0.5,2.2,1.4,3.5C2.4,14.5,3.4,15.5,4.4,16.2z"/>
		<path class="st0" d="M43.4,19c-5.6,3.8-9.9,6.8-12.8,8.9c-1,0.7-1.8,1.3-2.4,1.7c-0.6,0.4-1.4,0.8-2.4,1.2c-1,0.4-2,0.6-2.8,0.6h0
			h0c-0.9,0-1.8-0.2-2.8-0.6c-1-0.4-1.8-0.8-2.4-1.2c-0.6-0.4-1.4-1-2.4-1.7C13,26.2,8.8,23.2,2.6,19c-1-0.6-1.8-1.4-2.6-2.2v20.4
			c0,1.1,0.4,2.1,1.2,2.9C2,40.8,3,41.3,4.1,41.3h37.8c1.1,0,2.1-0.4,2.9-1.2c0.8-0.8,1.2-1.8,1.2-2.9V16.8
			C45.3,17.6,44.4,18.3,43.4,19z"/>
	</g>
</g>
</svg>
