<?xml version="1.0" encoding="utf-8"?>
<!-- Generator: Adobe Illustrator 23.0.6, SVG Export Plug-In . SVG Version: 6.00 Build 0)  -->
<svg version="1.1" id="Layer_1" xmlns="http://www.w3.org/2000/svg" xmlns:xlink="http://www.w3.org/1999/xlink" x="0px" y="0px"
	 viewBox="0 0 46 46" style="enable-background:new 0 0 46 46;" xml:space="preserve">
<style type="text/css">
	.st0{fill:#FFFFFF;}
</style>
<path class="st0" d="M39.8,0H6.2C2.8,0,0,2.8,0,6.2v33.6C0,43.2,2.8,46,6.2,46h16.6l0-16.4h-4.3c-0.6,0-1-0.4-1-1l0-5.3
	c0-0.6,0.4-1,1-1h4.3v-5.1c0-5.9,3.6-9.2,8.9-9.2H36c0.6,0,1,0.5,1,1v4.5c0,0.6-0.5,1-1,1l-2.7,0c-2.9,0-3.4,1.4-3.4,3.4v4.4h6.3
	c0.6,0,1.1,0.5,1,1.1l-0.6,5.3c-0.1,0.5-0.5,0.9-1,0.9H30l0,16.4h9.9c3.4,0,6.2-2.8,6.2-6.2V6.2C46,2.8,43.2,0,39.8,0z"/>
</svg>
