<?xml version="1.0" encoding="utf-8"?>
<!-- Generator: Adobe Illustrator 23.1.1, SVG Export Plug-In . SVG Version: 6.00 Build 0)  -->
<svg version="1.1" id="Layer_1" xmlns="http://www.w3.org/2000/svg" xmlns:xlink="http://www.w3.org/1999/xlink" x="0px" y="0px"
	 viewBox="0 0 76.9 75.4" style="enable-background:new 0 0 76.9 75.4;" xml:space="preserve">
<style type="text/css">
	.st0{fill:#AB33EB;}
</style>
<g id="Group_20" transform="translate(37.403)">
	<g id="Group_19">
		<path id="Path_79" class="st0" d="M17.3,18.3c0-1.5-0.6-2.9-1.6-4L10.3,9C9.3,8,7.8,7.4,6.3,7.4H6v11.2h11.3L17.3,18.3L17.3,18.3z
			"/>
	</g>
</g>
<g id="Group_22">
	<g id="Group_21">
		<path id="Path_80" class="st0" d="M40.3,46.1c0.4-1.1,1-2.1,1.8-2.9l12.7-12.6v-8.1H41.6c-1,0-1.8-0.8-1.8-1.8c0,0,0,0,0,0V7.4
			H11.6C8.5,7.4,6,9.9,6,13v52.7c0,3.1,2.5,5.6,5.6,5.6h37.4c3.1,0,5.6-2.5,5.7-5.6v-14l-2.1,2c-0.8,0.8-1.8,1.4-2.9,1.8l-6,2
			l-0.9,0c-2.6,0-4.7-2.1-4.7-4.7c0-0.5,0.1-1,0.2-1.5L40.3,46.1z M15.4,41.1h18.7c1,0,1.9,0.8,1.9,1.9s-0.8,1.9-1.9,1.9H15.4
			c-1,0-1.9-0.8-1.9-1.9S14.3,41.1,15.4,41.1z M13.5,35.5c0-1,0.8-1.9,1.9-1.9c0,0,0,0,0,0h18.7c1,0,1.9,0.8,1.9,1.9
			s-0.8,1.9-1.9,1.9H15.4C14.3,37.4,13.5,36.5,13.5,35.5C13.5,35.5,13.5,35.5,13.5,35.5z M13.5,50.5c0-1,0.8-1.9,1.9-1.9
			c0,0,0,0,0,0h18.7c1,0,1.9,0.8,1.9,1.9s-0.8,1.9-1.9,1.9H15.4C14.3,52.4,13.5,51.5,13.5,50.5C13.5,50.5,13.5,50.5,13.5,50.5z
			 M41.6,59.9c1,0,1.9,0.8,1.9,1.9s-0.8,1.9-1.9,1.9H30.3c-1,0-1.9-0.8-1.9-1.9s0.8-1.9,1.9-1.9H41.6z M15.4,29.9
			c-1,0-1.9-0.8-1.9-1.9s0.8-1.9,1.9-1.9h26.2c1,0,1.9,0.8,1.9,1.9s-0.8,1.9-1.9,1.9H15.4z"/>
	</g>
</g>
<g id="Group_24" transform="translate(35.958 40.351)">
	<g id="Group_23">
		<path id="Path_81" class="st0" d="M7.7,7.4l-1.6,4.9c-0.2,0.5,0.1,1,0.6,1.2c0.2,0.1,0.4,0.1,0.6,0l4.9-1.6L7.7,7.4z"/>
	</g>
</g>
<g id="Group_26" transform="translate(39.853 24.913)">
	<g id="Group_25">
		<path id="Path_82" class="st0" d="M18.4,7.4L6,19.7l5.3,5.3l12.3-12.3L18.4,7.4z"/>
	</g>
</g>
<g id="Group_28" transform="translate(54.852 18.494)">
	<g id="Group_27">
		<path id="Path_83" class="st0" d="M14.1,8.4C12.6,7,10.2,7,8.7,8.4L6,11.2l5.3,5.3l2.7-2.7C15.5,12.3,15.5,9.9,14.1,8.4z"/>
	</g>
</g>
<g id="Group_31" transform="translate(62.902 24.825)">
	<g id="Group_30">
		<g id="Group_29">
			<path id="Path_84" class="st0" d="M6,7.4L6,7.4L6,7.4L6,7.4z"/>
			<path id="Path_85" class="st0" d="M6,7.4L6,7.4L6,7.4z"/>
			<path id="Path_86" class="st0" d="M6,7.4"/>
		</g>
	</g>
</g>
</svg>
