<?xml version="1.0" encoding="utf-8"?>
<!-- Generator: Adobe Illustrator 23.0.6, SVG Export Plug-In . SVG Version: 6.00 Build 0)  -->
<svg version="1.1" id="Layer_1" xmlns="http://www.w3.org/2000/svg" xmlns:xlink="http://www.w3.org/1999/xlink" x="0px" y="0px"
	 viewBox="0 0 46 46" style="enable-background:new 0 0 46 46;" xml:space="preserve">
<style type="text/css">
	.st0{fill:#FFFFFF;}
</style>
<g>
	<g>
		<path class="st0" d="M31.6,0H14.4C6.4,0,0,6.4,0,14.4v17.2C0,39.6,6.4,46,14.4,46h17.2C39.6,46,46,39.6,46,31.6V14.4
			C46,6.4,39.6,0,31.6,0z M41.7,31.6c0,5.5-4.5,10.1-10.1,10.1H14.4c-5.5,0-10.1-4.5-10.1-10.1V14.4c0-5.5,4.5-10.1,10.1-10.1h17.2
			c5.5,0,10.1,4.5,10.1,10.1V31.6z"/>
	</g>
</g>
<g>
	<g>
		<path class="st0" d="M23,11.5c-6.4,0-11.5,5.1-11.5,11.5S16.6,34.5,23,34.5S34.5,29.4,34.5,23S29.4,11.5,23,11.5z M23,30.2
			c-4,0-7.2-3.2-7.2-7.2c0-4,3.2-7.2,7.2-7.2s7.2,3.2,7.2,7.2C30.2,27,27,30.2,23,30.2z"/>
	</g>
</g>
<g>
	<g>
		<circle class="st0" cx="35.4" cy="10.6" r="1.5"/>
	</g>
</g>
</svg>
